{"glyphs":{"0":{"ha":382,"x_min":40,"x_max":365,"o":"m 246 775 q 293 775 264 781 q 361 710 349 760 q 361 669 365 690 l 138 76 q 132 64 132 65 q 122 57 129 57 l 44 81 q 42 88 42 83 q 110 397 40 90 l 182 711 q 189 731 182 714 q 246 775 207 767 z "},"1":{"ha":1389,"x_min":74,"x_max":1314,"o":"m 331 613 q 410 611 361 615 q 479 593 457 601 q 560 551 521 578 q 626 497 597 526 q 688 429 651 474 q 704 407 703 408 l 717 424 q 863 565 786 519 q 985 611 917 597 q 1074 611 1021 617 q 1256 488 1188 590 q 1308 344 1296 428 q 1310 258 1314 310 q 1308 251 1308 254 q 1164 22 1285 97 q 1143 11 1154 17 q 1015 -15 1082 -17 q 944 -4 982 -14 q 869 24 915 1 q 761 101 810 53 q 701 169 733 128 l 683 192 l 671 175 q 525 33 601 79 q 404 -12 472 1 q 315 -12 365 -18 q 132 111 200 8 q 79 256 92 171 q 78 340 74 289 q 79 347 79 344 q 190 551 101 479 q 331 613 249 601 m 1083 539 q 1003 533 1044 543 q 944 513 976 528 q 849 442 896 489 q 771 343 806 399 l 763 331 l 801 281 q 871 193 851 217 q 1032 86 953 99 q 1092 86 1061 81 q 1221 190 1176 100 q 1246 313 1249 247 q 1174 490 1239 426 q 1083 539 1133 531 m 356 513 q 296 513 326 518 q 169 413 213 497 q 149 356 156 386 q 169 171 126 264 q 261 74 200 104 q 385 65 313 49 q 444 86 411 71 q 539 157 492 110 q 617 256 582 200 l 625 268 l 586 318 q 517 406 536 382 q 356 513 435 500 z "},"2":{"ha":926,"x_min":117,"x_max":818,"o":"m 500 749 l 643 750 l 651 750 l 789 750 l 794 747 q 808 713 817 736 q 797 700 806 704 l 792 696 l 647 694 q 457 686 493 693 q 369 656 413 675 q 308 618 338 640 q 181 429 211 544 q 172 378 172 396 l 172 375 l 481 375 l 789 375 l 794 372 q 806 363 799 369 q 810 347 810 354 q 806 332 810 340 q 794 322 799 325 l 789 319 l 481 319 l 172 319 l 172 317 q 181 265 172 299 q 308 76 211 150 q 369 39 338 54 q 456 10 415 18 q 601 0 493 1 l 647 0 l 792 0 l 797 -4 q 807 -42 818 -19 q 794 -53 803 -49 l 789 -56 l 654 -56 q 469 -50 503 -56 q 239 63 333 -28 q 124 267 149 147 q 117 347 117 299 q 124 429 117 396 q 239 632 149 549 q 500 749 347 733 z "},"3":{"ha":926,"x_min":107,"x_max":808,"o":"m 131 747 l 136 750 l 271 750 q 456 744 422 750 q 686 632 592 722 q 801 429 776 549 q 808 347 808 396 q 801 267 808 299 q 686 63 776 147 q 422 -54 576 -42 q 271 -56 413 -56 l 136 -56 l 131 -53 q 117 -18 108 -42 q 128 -4 121 -10 l 133 0 l 278 0 q 468 8 432 1 q 557 39 513 19 q 618 76 586 54 q 744 265 714 151 q 753 317 753 299 l 753 319 l 444 319 l 136 319 l 131 322 q 121 332 124 328 q 117 347 117 338 q 121 363 117 357 q 131 372 124 367 l 136 375 l 444 375 l 753 375 l 753 378 q 744 429 753 396 q 618 618 714 543 q 557 656 586 640 q 469 685 508 676 q 324 694 432 693 l 278 694 l 133 696 l 128 700 q 118 735 107 713 q 131 747 122 743 z "},"4":{"ha":1235,"x_min":79,"x_max":1150,"o":"m 604 992 q 632 989 619 1000 q 894 511 638 986 l 1150 38 l 1150 28 q 1147 13 1150 18 q 1136 3 1140 6 l 1131 0 l 618 0 l 104 0 l 97 4 q 86 15 89 7 q 86 42 79 28 l 594 982 l 604 992 m 847 482 l 617 907 l 157 56 l 617 56 l 1076 56 q 847 482 1076 58 z "},"5":{"ha":1235,"x_min":79,"x_max":1150,"o":"m 97 690 l 104 694 l 618 694 l 1131 694 l 1136 692 q 1147 682 1140 689 q 1150 667 1150 676 l 1150 658 l 894 183 q 632 -294 636 -292 q 617 -299 626 -299 q 601 -294 607 -299 q 346 172 596 -292 q 89 647 89 646 q 86 679 79 667 q 97 690 89 688 m 1076 639 l 617 639 l 157 639 l 617 -212 l 1076 639 z "},"6":{"ha":0,"x_min":190,"x_max":886,"o":"m 846 992 q 874 990 861 999 q 886 967 886 981 q 603 411 886 961 l 547 303 q 236 -294 242 -292 q 221 -299 231 -299 q 196 -285 204 -299 q 200 -254 190 -271 l 836 982 l 846 992 z "},"7":{"ha":0,"x_min":76,"x_max":169,"o":"m 96 606 q 113 606 104 607 q 124 599 119 603 q 132 554 131 590 q 132 479 132 538 l 132 375 l 140 375 q 169 347 165 375 q 140 319 169 324 l 132 319 l 132 215 q 124 96 132 106 q 111 89 118 90 q 97 89 104 88 q 85 96 90 90 q 78 135 78 104 q 76 347 76 167 q 79 590 76 585 q 96 606 83 600 z "},"8":{"ha":772,"x_min":0,"x_max":772,"o":"m 15 960 q 28 964 21 964 q 49 954 42 964 q 114 788 53 950 l 175 626 l 386 626 l 597 626 l 657 786 l 721 951 q 747 964 728 964 q 772 936 768 961 q 592 457 772 932 q 407 -21 408 -19 q 386 -31 400 -31 q 365 -21 372 -31 q 28 861 354 -7 q 0 935 0 933 q 4 949 0 943 q 15 960 7 957 m 575 569 q 386 571 575 571 q 197 569 197 571 l 386 76 l 575 569 z "},"9":{"ha":772,"x_min":78,"x_max":694,"o":"m 92 961 l 97 964 l 388 964 l 676 964 l 682 960 q 692 949 689 953 l 694 943 l 694 482 l 694 21 l 692 15 q 682 6 686 8 l 676 1 l 388 0 l 97 0 l 92 3 q 82 13 85 8 q 78 28 78 18 q 82 43 78 38 q 92 53 85 47 l 97 56 l 368 56 l 639 56 l 639 256 l 639 454 l 378 454 l 117 454 l 111 457 q 101 467 104 461 q 97 482 97 472 q 101 497 97 492 q 111 507 104 503 l 117 510 l 378 510 l 639 510 l 639 710 l 639 908 l 368 908 l 97 908 l 92 911 q 82 921 85 917 q 78 936 78 926 q 82 951 78 946 q 92 961 85 956 z "}," ":{"ha":91019,"x_min":0,"x_max":0,"o":""},"!":{"ha":1389,"x_min":78,"x_max":1311,"o":"m 967 707 q 988 710 971 710 q 1014 699 1010 710 q 1017 690 1015 696 q 1032 633 1021 663 q 1218 400 1082 485 q 1299 363 1260 375 q 1311 347 1311 358 q 1296 331 1311 338 q 1286 328 1292 329 q 1063 132 1140 272 q 1032 61 1044 97 q 1017 6 1022 32 q 988 -15 1000 -14 q 961 -6 964 -15 q 967 35 957 1 q 1046 206 992 131 q 1154 315 1085 260 l 1160 319 l 628 319 l 97 319 l 92 322 q 82 332 83 328 q 78 347 78 338 q 82 363 78 357 q 92 372 83 367 l 97 375 l 628 375 l 1160 375 l 1154 379 q 1007 553 1057 454 q 961 685 972 619 q 967 707 958 700 z "},"\"":{"ha":694,"x_min":24,"x_max":671,"o":"m 340 961 q 363 950 358 971 l 367 928 q 444 763 386 836 q 501 706 476 724 q 644 633 568 653 q 665 626 664 628 q 671 601 671 621 q 660 575 671 579 q 636 578 654 574 q 389 751 479 621 q 385 757 386 754 l 375 771 l 375 261 l 375 -249 l 372 -254 q 363 -264 367 -262 q 347 -268 357 -268 q 332 -264 338 -268 q 322 -254 328 -262 l 319 -249 l 319 261 l 319 771 l 310 757 q 138 607 246 660 q 35 575 61 571 q 24 601 24 578 q 29 626 24 621 q 50 633 31 628 q 193 706 126 653 q 250 763 226 729 q 331 942 315 843 q 340 961 332 957 z "},"#":{"ha":694,"x_min":24,"x_max":671,"o":"m 338 963 q 349 964 339 964 q 372 949 365 961 l 375 943 l 375 433 l 375 -76 l 385 -62 q 558 88 449 35 q 660 119 631 122 q 671 93 671 117 q 665 68 671 74 q 644 61 664 67 q 501 -11 568 42 q 444 -68 476 -29 q 367 -233 386 -142 l 363 -256 q 340 -267 358 -276 q 331 -247 332 -265 q 250 -68 315 -149 q 193 -11 226 -35 q 50 61 126 42 q 29 68 31 67 q 24 93 24 74 q 35 119 24 115 q 58 117 40 121 q 306 -57 215 74 q 310 -62 308 -60 l 319 -76 l 319 433 q 322 949 319 943 q 338 963 326 958 z "},"$":{"ha":1389,"x_min":76,"x_max":1311,"o":"m 381 707 q 400 710 386 710 q 426 700 424 710 q 421 660 431 693 q 342 489 396 564 q 233 379 303 435 l 229 375 l 694 375 l 1160 375 l 1154 379 q 1007 553 1057 454 q 967 660 981 606 q 961 700 957 693 q 988 710 964 710 q 1014 699 1010 710 q 1017 690 1015 696 q 1032 633 1021 663 q 1218 400 1082 485 q 1299 363 1260 375 q 1311 347 1311 358 q 1296 331 1311 338 q 1286 328 1292 329 q 1063 132 1140 272 q 1032 61 1044 97 q 1017 6 1022 32 q 988 -15 1000 -14 q 961 -6 964 -15 q 967 35 957 1 q 1046 206 992 131 q 1154 315 1085 260 l 1160 319 l 694 319 l 229 319 l 233 315 q 381 142 331 240 q 421 35 407 89 q 426 -6 431 1 q 400 -15 424 -15 q 374 -3 378 -15 q 371 6 372 0 q 365 29 368 15 q 189 282 326 188 q 101 328 147 310 q 76 343 81 336 q 81 357 76 353 q 101 367 86 363 q 328 568 253 426 q 365 665 353 615 q 371 690 367 674 q 381 707 375 706 z "},"%":{"ha":1389,"x_min":74,"x_max":1350,"o":"m 822 986 q 844 999 838 1001 q 864 988 849 997 q 1038 924 942 938 q 1139 921 1085 915 q 1275 956 1210 926 q 1297 964 1290 964 q 1311 951 1308 964 q 1306 932 1311 947 q 1269 810 1279 875 q 1269 699 1264 756 q 1271 692 1271 694 q 1335 517 1285 599 q 1346 489 1350 494 q 1333 475 1343 485 q 1315 461 1321 461 q 1290 485 1306 461 q 1215 694 1229 581 q 1215 808 1210 749 q 1219 831 1218 828 l 669 283 q 115 -268 121 -265 q 81 -257 93 -278 q 78 -233 74 -246 q 629 322 81 -228 q 1176 872 1179 872 q 1043 868 1118 860 q 832 943 928 883 q 808 968 808 958 q 822 986 808 974 z "},"&":{"ha":1389,"x_min":71,"x_max":1349,"o":"m 92 963 q 115 963 104 968 q 669 411 121 960 q 1219 -135 1219 -136 q 1215 -112 1218 -133 q 1215 0 1210 -62 q 1290 210 1229 114 q 1315 233 1306 233 q 1333 219 1321 233 q 1346 197 1349 204 q 1335 178 1344 193 q 1271 3 1285 96 q 1269 -114 1264 -43 q 1306 -237 1279 -181 q 1311 -257 1311 -253 q 1297 -269 1308 -269 q 1275 -261 1290 -269 q 1139 -226 1210 -232 q 1038 -229 1085 -221 q 864 -293 942 -243 q 836 -304 842 -308 q 822 -292 832 -301 q 808 -274 808 -279 q 832 -249 808 -264 q 1043 -174 928 -189 q 1176 -178 1118 -165 q 629 372 1179 -178 q 78 928 81 922 q 92 963 71 951 z "},"'":{"ha":1081,"x_min":74,"x_max":1006,"o":"m 288 643 l 349 642 q 446 603 397 631 q 549 531 476 586 q 685 443 638 463 q 769 426 728 426 q 910 482 850 425 q 954 553 940 514 q 964 601 963 578 q 967 625 964 619 q 989 642 974 651 q 994 636 992 640 q 1001 575 1006 621 q 889 383 988 446 q 838 358 865 367 q 769 349 806 347 q 679 367 722 349 q 531 461 626 388 q 394 549 442 529 q 310 565 351 565 q 169 510 229 567 q 125 440 140 478 q 115 389 117 414 q 106 351 114 361 q 83 358 92 340 q 78 417 74 376 q 193 611 92 549 q 211 621 201 617 q 288 643 242 638 m 92 103 l 100 106 l 540 106 l 981 106 l 988 103 q 1003 78 1003 94 q 999 63 1003 71 q 988 53 992 56 l 982 50 l 539 50 l 97 50 l 92 53 q 82 63 85 58 q 78 78 78 68 q 92 103 78 94 z "},"(":{"ha":1389,"x_min":78,"x_max":1311,"o":"m 539 728 q 557 729 540 729 q 581 719 578 728 q 575 694 583 714 q 456 524 526 599 l 442 510 l 865 510 l 1290 510 l 1296 507 q 1307 497 1300 504 q 1311 482 1311 489 q 1307 467 1311 475 q 1297 458 1300 460 l 1292 456 l 836 454 l 381 454 l 367 443 q 218 354 294 388 q 204 347 206 347 l 218 340 q 367 251 294 307 l 381 240 l 836 240 l 1292 240 l 1297 236 q 1307 228 1300 235 q 1311 213 1311 219 q 1307 197 1311 206 q 1296 188 1300 190 l 1290 185 l 865 185 l 442 185 l 456 171 q 575 0 526 96 q 581 -26 583 -19 q 554 -33 576 -33 q 528 -24 533 -33 q 524 -17 526 -22 q 256 265 431 167 q 222 283 239 275 q 100 329 164 313 q 78 347 79 335 q 93 364 78 358 q 100 365 96 364 q 222 411 164 382 q 506 678 401 499 q 524 711 515 694 q 539 728 532 726 z "},")":{"ha":1389,"x_min":78,"x_max":1311,"o":"m 818 728 q 854 726 826 733 q 864 711 856 725 q 994 533 914 613 q 1204 394 1085 444 q 1288 365 1249 375 q 1311 347 1311 358 q 1296 332 1311 338 q 1288 329 1293 331 q 1167 283 1222 313 q 881 15 985 196 q 864 -17 872 -1 q 833 -33 844 -32 q 807 -26 811 -33 q 813 0 804 -19 q 932 171 861 96 l 946 185 l 522 185 l 97 185 l 92 188 q 82 197 85 192 q 78 213 78 203 q 92 238 78 229 l 100 240 l 553 240 l 1007 240 l 1021 251 q 1169 340 1093 307 q 1183 347 1182 347 l 1169 354 q 1021 443 1093 388 l 1007 454 l 553 454 l 100 454 l 92 457 q 78 482 78 465 q 82 497 78 492 q 92 507 85 503 l 97 510 l 522 510 l 946 510 l 932 524 q 813 694 861 599 q 806 714 806 708 q 818 728 806 724 z "},"*":{"ha":849,"x_min":43,"x_max":804,"o":"m 414 961 q 424 964 419 964 q 439 949 433 964 q 442 940 440 946 q 619 638 489 764 q 783 519 694 564 q 804 501 803 510 q 804 486 804 497 l 804 468 l 800 463 q 771 467 793 456 q 765 469 768 468 q 604 582 676 514 l 588 597 l 586 174 l 586 -251 l 582 -257 q 543 -265 565 -279 q 533 -254 538 -261 l 531 -246 l 531 207 l 531 660 l 518 676 q 429 824 465 744 q 424 836 424 835 l 418 824 q 331 678 382 744 l 318 661 l 317 206 l 317 -249 l 313 -254 q 282 -269 304 -274 q 276 -267 279 -268 q 267 -257 268 -258 l 263 -251 l 261 174 l 261 597 l 244 582 q 82 469 169 513 q 47 463 56 456 l 43 468 l 43 486 q 51 513 43 507 q 64 519 54 514 q 228 638 153 564 q 406 940 358 764 q 414 961 410 956 z "},"+":{"ha":849,"x_min":43,"x_max":804,"o":"m 276 961 q 310 956 294 971 q 313 950 311 953 l 317 944 l 317 489 l 318 35 l 331 17 q 418 -129 382 -50 q 424 -142 424 -140 l 429 -129 q 518 18 465 -50 l 531 35 l 531 488 l 531 942 l 533 949 q 557 964 540 963 q 582 951 572 964 l 586 946 l 586 521 l 588 97 l 604 113 q 765 225 676 181 q 800 232 792 239 l 804 226 l 804 208 q 796 182 804 188 q 783 175 793 181 q 535 -43 628 97 q 442 -246 472 -136 q 424 -269 435 -269 q 408 -254 414 -269 q 406 -246 407 -251 q 313 -43 375 -136 q 64 175 219 97 q 43 193 44 185 q 43 208 43 197 l 43 226 l 47 232 q 76 228 54 239 q 82 225 79 226 q 244 113 169 182 l 261 97 l 261 521 l 263 946 l 267 951 l 276 961 z "},",":{"ha":1389,"x_min":47,"x_max":1342,"o":"m 428 728 l 464 728 q 467 693 479 719 q 364 522 428 600 q 354 511 356 513 q 694 510 354 510 q 1033 511 1033 510 l 1024 522 q 921 693 960 600 q 917 722 910 714 q 944 729 922 729 q 968 717 963 728 q 974 704 969 714 q 1176 447 1044 547 q 1253 399 1219 415 q 1326 364 1299 372 q 1342 347 1342 358 q 1326 331 1342 336 q 1253 296 1299 322 q 974 -10 1060 190 q 954 -33 964 -32 q 944 -35 953 -35 q 917 -28 922 -35 q 921 1 910 -19 q 1024 172 960 94 q 1033 183 1032 182 q 694 185 1033 185 q 354 183 354 185 l 364 172 q 467 1 428 94 q 471 -28 476 -19 q 443 -35 465 -35 q 419 -22 425 -33 q 414 -10 418 -19 q 211 247 343 147 q 135 296 168 279 q 61 331 89 322 q 47 347 47 336 q 61 364 47 358 q 135 399 89 372 q 415 707 326 504 q 428 728 424 725 m 1100 443 l 1088 454 l 693 454 l 300 454 l 290 444 q 167 356 243 401 l 153 347 l 167 339 q 288 251 240 294 l 300 240 l 694 240 l 1088 240 l 1100 251 q 1221 339 1147 294 l 1235 347 l 1221 356 q 1100 443 1147 400 z "},"-":{"ha":1389,"x_min":39,"x_max":1317,"o":"m 524 988 q 551 999 546 1003 q 565 986 556 996 q 579 968 579 974 q 556 943 579 958 q 344 868 460 883 q 213 872 269 860 q 758 322 208 872 q 1310 -233 1308 -228 q 1296 -268 1317 -257 q 1272 -268 1285 -274 q 718 283 1267 -265 q 168 831 169 829 q 172 808 169 828 q 172 694 178 754 q 97 485 158 581 q 72 461 82 461 q 54 475 67 461 q 42 497 39 490 q 53 517 43 501 q 117 692 103 599 q 118 810 124 738 q 82 932 108 875 q 76 949 76 946 q 93 964 76 961 l 113 957 l 114 956 q 249 921 175 928 q 351 924 301 915 q 524 988 446 939 z "},".":{"ha":1389,"x_min":38,"x_max":1314,"o":"m 1272 963 q 1307 951 1294 972 q 1310 928 1314 940 q 758 372 1308 922 q 213 -178 208 -178 q 344 -174 269 -165 q 556 -249 460 -189 q 579 -274 579 -264 q 565 -292 579 -279 q 543 -304 550 -307 q 524 -293 539 -303 q 351 -229 446 -244 q 249 -226 301 -221 q 114 -261 175 -233 l 93 -269 q 76 -254 81 -271 q 82 -237 76 -251 q 118 -114 108 -181 q 118 -4 124 -62 q 117 3 117 0 q 53 178 103 96 q 42 206 38 200 q 54 219 44 210 q 72 233 67 233 q 97 210 82 233 q 172 0 158 114 q 172 -112 178 -53 q 168 -135 169 -133 q 718 411 168 -136 q 1272 963 1263 958 z "},"/":{"ha":1081,"x_min":78,"x_max":1003,"o":"m 310 613 q 382 611 338 615 q 526 544 460 596 q 586 486 561 517 q 629 428 607 464 l 642 410 l 646 417 q 692 483 654 433 q 763 553 725 525 q 911 613 831 604 q 996 606 956 617 l 1003 604 l 1003 572 q 1000 540 1003 540 q 919 540 971 551 q 733 397 811 517 q 694 328 697 344 q 774 206 694 325 q 914 82 843 107 q 999 76 954 68 l 1003 76 l 1003 36 l 1003 -6 l 988 -8 q 925 -15 960 -15 q 801 18 864 -14 q 715 82 756 42 q 643 171 671 126 l 631 189 l 626 182 q 581 117 614 158 q 479 25 536 58 q 250 1 363 -44 q 242 6 246 4 q 115 136 161 43 q 82 243 90 186 q 79 299 79 260 q 92 403 78 351 q 136 499 108 458 q 310 613 201 597 m 335 522 q 247 513 285 532 q 160 403 189 485 q 144 297 144 358 q 153 210 144 244 q 260 61 182 92 q 281 56 269 57 q 353 58 315 50 q 539 201 461 82 q 578 271 575 254 l 499 394 q 335 522 418 507 z "},":":{"ha":926,"x_min":78,"x_max":849,"o":"m 92 492 l 97 494 l 463 494 l 828 494 l 833 492 q 844 482 838 489 l 849 476 l 849 308 l 849 142 l 843 136 q 807 128 828 114 q 799 136 803 131 l 794 142 l 793 290 l 793 439 l 446 439 l 97 439 l 92 442 q 82 451 85 447 q 78 467 78 457 q 82 482 78 476 q 92 492 85 486 z "},";":{"ha":694,"x_min":54,"x_max":639,"o":"m 501 1071 q 533 1060 522 1078 q 533 1022 542 1050 q 524 989 531 1011 l 508 935 l 525 918 q 583 828 560 882 q 639 478 639 707 q 586 139 639 258 q 518 38 560 79 q 313 -28 428 -46 q 250 -10 279 -24 q 233 -6 233 -4 l 221 -46 q 197 -104 206 -99 q 160 -96 178 -117 q 160 -58 151 -86 q 169 -25 163 -47 l 185 29 l 174 40 q 107 139 135 78 q 54 478 54 258 q 96 793 54 678 q 143 888 117 851 q 190 938 158 913 q 406 988 285 1015 q 453 969 439 978 l 460 967 l 463 975 q 488 1058 486 1057 q 501 1071 492 1065 m 367 928 q 242 882 292 936 q 190 746 203 843 q 182 460 182 669 l 185 313 q 207 147 190 196 q 214 129 213 128 l 326 513 l 439 896 l 431 901 q 367 928 400 924 m 485 829 q 481 839 481 838 l 368 456 l 256 71 l 260 67 l 276 56 q 415 54 344 13 q 475 119 453 76 q 508 313 501 169 q 510 604 513 381 q 510 629 510 619 q 485 829 506 775 z "},"<":{"ha":1003,"x_min":50,"x_max":993,"o":"m 751 993 l 778 994 l 779 994 q 801 992 799 994 q 976 651 810 986 q 993 617 993 618 l 992 611 l 992 610 q 796 510 985 603 l 769 496 l 771 490 l 779 331 q 786 167 788 175 q 792 97 781 126 q 828 39 803 64 l 835 33 l 872 78 q 914 125 908 122 q 924 124 919 126 q 975 94 942 118 l 976 88 l 976 86 q 924 28 976 81 l 867 -29 q 796 -31 857 -33 q 783 -29 788 -31 q 654 65 694 -14 q 636 115 643 83 l 636 168 q 629 314 639 179 q 622 457 622 442 l 622 463 l 550 463 l 476 463 l 476 386 q 463 218 475 271 q 371 17 439 89 q 244 -29 315 -39 q 100 85 139 -11 q 93 96 96 96 q 68 113 86 94 q 50 139 50 131 q 65 151 51 146 q 92 174 75 157 l 114 194 q 131 186 125 199 q 140 181 133 181 l 146 181 l 164 164 q 181 140 181 146 q 167 126 181 132 q 157 121 158 121 q 172 92 157 117 q 214 51 189 68 q 279 36 247 31 q 317 100 303 44 q 325 278 325 131 q 325 447 325 321 q 318 797 325 742 q 292 874 313 843 q 203 907 256 931 q 169 874 185 899 q 153 810 153 847 q 182 746 153 781 q 243 661 228 690 q 264 608 260 628 l 268 593 l 268 550 q 242 390 268 442 q 200 347 226 360 q 108 360 147 321 q 76 440 81 388 q 86 465 75 463 q 111 467 92 467 q 144 458 142 467 q 146 439 146 453 q 160 403 147 403 q 179 424 171 403 q 189 476 188 444 l 190 565 l 190 568 q 150 651 186 604 q 89 743 99 719 q 78 801 78 768 q 81 839 78 828 q 183 969 101 940 q 190 972 188 971 q 339 942 264 997 q 406 871 375 919 l 411 863 l 424 875 q 474 915 450 900 q 751 993 579 985 m 753 761 q 675 908 678 908 l 658 906 q 464 804 514 881 l 453 788 l 450 779 l 453 771 q 468 708 464 739 q 476 597 475 672 l 476 540 l 589 540 q 729 547 711 540 q 776 576 749 556 q 811 600 803 596 q 828 613 826 611 q 753 761 828 617 z "},"=":{"ha":1003,"x_min":75,"x_max":969,"o":"m 321 978 q 399 975 360 981 q 556 901 475 961 q 686 786 597 869 q 750 729 736 736 q 786 726 757 726 q 885 764 879 726 q 894 781 886 779 q 924 782 900 782 q 961 775 957 782 q 950 722 969 757 q 944 714 947 718 q 857 668 918 681 q 742 661 797 656 q 594 719 661 669 q 508 808 561 746 q 397 906 439 889 q 379 911 389 908 q 319 911 360 917 q 253 885 285 906 q 158 740 175 836 q 157 661 151 703 q 213 556 171 597 q 372 482 278 488 q 397 472 396 481 q 399 450 399 468 q 392 418 399 424 q 303 428 374 410 q 294 429 299 428 q 174 493 224 449 q 78 672 89 565 q 79 743 75 714 q 136 874 92 814 q 181 918 161 903 q 321 978 243 969 m 738 597 q 797 597 767 600 q 901 561 856 592 q 946 515 932 539 q 961 446 968 478 q 924 439 956 439 q 886 449 889 439 q 885 460 885 451 q 814 528 879 510 q 793 532 804 531 q 733 518 753 538 q 704 435 708 493 q 711 392 704 407 q 781 322 725 363 q 867 246 850 274 q 872 235 869 240 q 883 186 883 214 q 851 85 883 133 q 796 31 828 53 q 683 -12 749 0 q 581 -14 672 -14 q 475 -11 489 -14 q 321 69 408 3 q 304 82 313 75 q 185 164 222 146 q 99 189 143 186 q 81 193 85 189 l 76 197 l 76 219 q 85 253 76 250 q 164 254 88 254 q 279 243 250 253 q 432 132 338 222 q 549 36 507 61 q 585 21 576 21 q 631 38 597 21 q 685 76 660 51 q 729 150 715 106 q 732 186 732 161 q 719 233 732 217 q 640 301 704 258 q 565 378 585 342 q 554 432 554 400 q 599 532 558 490 q 738 597 647 585 z "},">":{"ha":1081,"x_min":74,"x_max":1004,"o":"m 92 924 l 99 928 l 542 928 l 983 928 l 989 925 q 1000 915 993 922 q 1004 900 1004 907 q 1000 885 1004 893 q 989 875 993 878 l 983 872 l 775 872 l 568 872 l 568 447 l 568 21 l 565 15 q 543 0 557 3 q 528 4 535 0 q 517 15 519 7 l 513 22 l 513 447 l 513 872 l 306 872 l 99 872 l 92 876 q 81 888 83 879 q 81 913 74 900 q 92 924 83 921 z "},"?":{"ha":1081,"x_min":76,"x_max":1004,"o":"m 528 924 q 543 928 535 928 q 565 913 557 925 l 568 907 l 568 481 l 568 56 l 775 56 l 983 56 l 989 53 q 1000 43 993 50 q 1004 28 1004 35 q 1000 13 1004 21 q 989 3 993 6 l 983 0 l 542 0 l 99 0 l 92 4 q 81 15 83 7 q 76 28 76 22 q 81 40 76 33 q 92 51 83 49 l 99 56 l 306 56 l 513 56 l 513 481 l 513 906 l 517 913 q 528 924 519 921 z "},"@":{"ha":849,"x_min":69,"x_max":774,"o":"m 114 961 q 131 960 125 968 q 135 942 135 956 q 190 808 139 871 q 383 606 196 800 q 567 418 564 417 l 572 447 q 586 529 572 453 q 613 706 608 653 l 614 717 l 606 722 q 563 763 583 738 q 543 803 549 785 q 543 896 532 835 q 546 907 544 901 q 578 963 556 947 q 597 950 594 969 q 640 872 601 932 q 697 806 672 825 q 710 794 701 801 q 763 736 751 758 q 771 690 771 721 q 742 579 771 613 q 717 572 726 563 q 713 589 713 576 l 708 613 q 690 653 703 633 l 686 657 l 686 653 q 682 625 685 650 l 661 508 q 638 353 642 407 l 638 340 l 661 314 q 758 188 738 236 q 771 131 769 164 q 742 11 774 47 q 717 4 726 -6 q 713 22 713 8 q 657 156 708 96 l 279 550 l 261 494 q 243 319 240 407 q 244 301 243 308 q 299 221 251 271 q 357 139 346 169 q 360 85 365 110 q 303 17 350 42 q 258 3 285 7 q 103 0 231 -4 q 83 1 85 0 q 76 35 76 7 l 76 57 l 81 61 q 107 65 83 65 q 181 82 160 67 q 192 113 192 92 q 157 203 190 142 q 117 296 125 258 q 115 331 115 306 q 208 596 119 444 l 219 615 l 190 646 q 85 788 101 739 q 81 800 82 793 q 82 900 69 844 q 83 907 82 904 q 114 961 93 949 z "},"A":{"ha":1108,"x_min":36,"x_max":1157,"o":"m 904 1014 q 938 1014 928 1018 q 950 1001 944 1011 l 950 943 q 961 426 943 685 q 999 126 972 232 q 1017 76 1010 83 q 1028 69 1022 72 q 1054 79 1033 68 q 1129 103 1101 103 q 1154 89 1150 103 q 1154 69 1157 81 q 1110 21 1146 46 q 1007 -31 1069 -6 q 947 -42 979 -40 q 899 -32 917 -42 q 864 0 876 -22 q 824 181 843 40 q 821 201 822 192 l 819 224 l 640 224 l 461 225 l 446 203 q 236 -43 313 7 q 165 -69 197 -69 q 64 -12 103 -69 q 54 6 58 -4 q 43 89 36 44 q 90 179 54 151 q 107 188 99 186 q 124 181 118 188 q 135 153 133 174 q 153 118 136 135 q 174 103 160 110 q 218 93 203 88 q 378 257 268 101 q 738 851 585 544 l 765 908 l 782 908 l 799 908 l 799 924 q 810 956 800 943 q 890 1011 836 994 q 904 1014 897 1013 m 800 554 l 797 697 l 797 792 l 786 771 q 546 351 683 567 l 528 324 l 533 326 q 685 332 550 332 l 811 332 l 810 347 q 800 554 806 407 z "},"B":{"ha":913,"x_min":44,"x_max":924,"o":"m 375 978 l 392 979 l 393 979 q 411 975 404 979 q 419 965 417 972 q 417 922 422 960 q 407 853 415 911 q 403 819 403 821 q 419 835 403 815 q 551 929 485 896 q 697 976 622 964 q 790 976 740 982 q 893 915 857 963 q 917 868 907 899 q 918 797 924 842 q 818 644 899 715 q 711 574 768 603 l 701 567 l 713 563 q 768 533 739 551 q 867 389 847 481 q 869 343 869 375 q 867 293 869 310 q 811 168 853 226 q 585 4 729 58 q 511 -18 547 -10 q 349 -25 415 -40 q 246 24 292 -14 q 215 54 224 39 q 256 119 206 83 q 336 149 297 149 q 361 138 351 149 q 369 131 364 136 q 393 111 376 124 q 525 79 449 72 q 686 165 636 90 q 715 239 707 196 q 717 314 722 275 q 643 429 701 385 q 532 471 601 460 q 451 471 492 476 q 426 468 435 468 q 410 472 414 468 q 404 507 392 482 q 469 563 421 540 q 507 576 486 571 q 747 697 703 642 q 765 738 760 717 q 765 797 774 764 q 739 838 757 819 q 656 871 711 864 q 551 839 603 875 q 492 778 518 813 q 306 336 385 643 q 213 81 269 193 q 172 14 188 29 q 72 -31 125 -31 q 56 -26 61 -31 q 44 -6 44 -19 l 65 40 q 158 297 122 153 q 250 754 218 540 q 263 839 263 825 l 239 826 q 176 807 200 808 q 157 811 163 807 q 144 831 144 817 q 193 890 144 858 q 344 967 222 911 q 360 974 357 974 q 375 978 374 978 z "},"C":{"ha":732,"x_min":14,"x_max":742,"o":"m 597 978 q 635 979 600 979 q 675 975 667 978 q 729 933 717 964 q 740 892 739 917 q 721 801 742 856 q 661 674 694 726 q 574 614 633 631 q 544 610 558 610 q 529 614 535 610 q 518 632 518 621 q 533 671 518 639 q 575 760 560 722 q 588 819 588 797 q 579 856 588 846 q 565 865 575 861 q 513 869 547 871 q 386 831 436 863 q 308 757 343 800 q 189 499 226 654 q 214 163 136 285 q 265 108 235 129 q 379 74 310 74 q 394 75 388 74 q 542 172 482 85 q 585 217 561 200 q 665 244 625 244 q 688 232 681 244 q 688 207 693 224 q 653 156 682 196 q 397 -17 551 31 q 336 -31 367 -26 q 247 -33 289 -39 q 163 -8 206 -29 q 67 78 101 22 q 17 294 14 160 q 39 450 18 367 q 246 819 97 683 q 469 953 342 913 q 597 978 525 972 z "},"D":{"ha":1071,"x_min":22,"x_max":1068,"o":"m 454 947 l 686 947 q 935 874 836 938 q 1064 614 1068 785 q 1006 399 1060 500 q 825 190 944 282 q 381 7 629 39 q 367 6 374 7 q 208 0 315 0 l 111 0 l 106 4 q 100 39 89 15 q 139 81 108 58 q 192 104 169 100 l 204 108 l 207 118 q 375 803 343 460 q 378 839 381 839 l 322 832 q 210 789 244 819 q 176 732 188 767 q 156 696 169 714 q 50 647 106 653 q 26 660 32 647 q 29 692 22 668 q 135 832 57 772 q 454 947 263 932 m 571 839 q 536 840 558 840 l 525 840 l 525 833 l 519 793 q 350 147 479 472 q 335 111 335 113 q 363 108 335 108 q 500 122 435 108 q 754 238 650 153 q 825 310 796 271 q 910 514 894 400 q 910 606 915 560 q 826 757 896 699 q 571 839 740 828 z "},"E":{"ha":733,"x_min":24,"x_max":785,"o":"m 579 976 q 632 979 604 979 q 711 969 679 978 q 783 892 779 953 q 775 840 785 867 q 742 785 761 804 q 635 735 697 739 q 613 749 618 735 q 611 763 610 754 q 621 783 611 771 q 632 822 632 806 q 606 858 628 853 q 514 871 558 874 q 419 842 460 867 q 353 733 363 804 q 356 685 349 707 q 444 597 372 625 q 553 576 493 576 q 575 567 567 576 q 557 513 592 547 q 551 508 554 511 q 456 468 504 468 q 329 431 389 468 q 204 269 240 375 q 199 250 201 260 q 194 214 194 236 q 197 182 194 193 q 290 93 218 118 q 390 79 342 75 q 547 176 481 88 q 590 218 568 204 q 668 244 631 244 q 690 232 683 244 q 672 182 700 217 q 419 -6 575 51 q 411 -8 415 -7 q 206 -24 297 -44 q 74 54 122 -8 q 51 208 24 118 q 218 449 90 346 q 290 499 263 483 q 296 503 294 501 l 290 507 q 249 536 279 513 q 204 611 218 564 q 201 650 201 624 q 204 690 201 678 q 264 810 217 753 q 324 868 294 847 q 579 976 439 961 z "},"F":{"ha":999,"x_min":21,"x_max":1149,"o":"m 574 947 l 1067 947 q 1118 936 1103 943 q 1146 913 1138 924 q 1149 892 1149 906 q 1144 869 1149 878 q 1111 832 1136 850 q 1028 800 1068 800 q 1008 804 1014 800 q 999 822 1000 808 l 999 831 l 990 832 q 856 840 971 839 l 829 840 l 700 840 l 699 831 q 674 721 692 789 q 622 544 651 635 q 611 513 611 518 l 779 513 l 947 513 l 954 508 q 965 490 965 501 q 956 457 965 476 q 875 394 935 417 q 835 388 853 388 q 813 400 818 388 l 810 404 l 689 404 q 568 401 569 404 q 525 301 561 378 q 417 88 468 169 q 247 -37 351 -7 q 229 -42 238 -40 q 188 -44 217 -44 q 107 -29 139 -44 q 31 44 56 -3 q 26 75 21 61 q 97 138 40 111 q 125 147 111 144 q 163 146 147 151 q 178 128 169 143 q 218 82 193 99 q 271 64 236 69 l 278 64 l 283 72 q 375 256 322 133 q 378 261 376 258 q 558 835 508 547 l 560 840 l 525 840 q 454 831 481 839 q 360 736 385 807 q 339 697 353 711 q 233 647 290 653 q 210 660 215 647 q 213 693 206 668 q 290 813 233 756 q 547 943 396 918 q 574 947 561 946 z "},"G":{"ha":826,"x_min":32,"x_max":832,"o":"m 619 978 l 715 976 q 807 940 781 964 q 831 872 832 913 q 815 817 829 846 q 729 686 778 740 q 626 640 681 640 q 611 644 617 640 q 600 663 600 651 q 619 701 600 676 q 675 793 663 756 q 678 814 678 799 q 674 835 678 826 q 647 857 667 850 q 556 869 610 869 q 394 826 464 869 q 244 617 296 761 q 229 565 236 592 q 254 279 185 388 q 264 267 260 272 q 394 203 308 208 q 501 239 450 200 q 558 296 531 261 q 632 440 608 358 q 663 488 642 469 q 750 528 703 524 l 764 529 l 772 526 q 785 507 785 519 q 732 300 785 481 q 731 294 732 297 q 572 -32 663 72 q 400 -149 500 -117 q 388 -153 393 -151 q 281 -165 336 -167 q 132 -139 201 -164 q 79 -115 92 -125 q 83 -71 60 -100 q 179 -15 118 -25 q 188 -14 183 -14 l 201 -12 l 219 -19 q 392 -56 300 -56 q 438 -44 424 -56 q 442 -40 439 -43 q 539 124 492 6 q 560 182 560 174 l 547 175 q 353 97 454 113 q 258 97 308 92 q 253 97 256 97 q 168 133 204 108 q 85 240 114 168 q 90 554 32 371 q 318 869 156 753 q 619 978 453 965 z "},"H":{"ha":1174,"x_min":17,"x_max":1122,"o":"m 422 947 l 493 947 q 544 917 524 939 q 567 858 567 892 q 549 704 567 807 q 510 525 536 626 q 499 483 499 485 l 499 481 l 651 481 l 804 481 l 813 513 q 935 864 878 733 q 946 888 942 882 q 1004 935 963 915 q 1054 949 1031 947 q 1074 946 1068 949 q 1082 939 1081 943 q 1078 897 1089 931 q 1072 883 1075 892 q 888 261 935 521 q 865 89 865 150 q 869 64 865 72 q 913 42 882 40 q 961 47 950 42 q 967 56 965 49 q 1036 119 979 93 q 1082 133 1060 131 l 1096 135 l 1104 132 q 1113 92 1122 121 q 992 -29 1083 17 q 819 -68 915 -64 q 765 -60 782 -68 q 722 -21 735 -46 q 715 53 710 4 q 765 338 728 194 q 775 381 775 376 l 768 378 q 604 372 744 372 l 467 372 q 413 204 467 363 q 339 8 354 33 q 269 -47 319 -26 q 226 -57 244 -56 q 206 -53 213 -57 q 194 -35 194 -46 q 211 11 194 -26 q 325 351 281 197 l 332 372 l 268 372 l 204 372 l 197 376 q 186 397 186 383 q 244 461 190 431 q 256 467 250 464 q 319 481 281 479 l 326 481 l 361 481 l 363 486 q 408 729 397 615 q 410 815 418 799 q 333 838 394 846 q 321 836 328 838 q 221 792 256 828 q 175 728 197 768 q 156 697 164 706 q 50 647 107 653 q 35 651 43 647 q 31 690 17 663 q 35 700 32 694 q 121 815 68 765 q 422 947 246 932 z "},"I":{"ha":757,"x_min":-51,"x_max":913,"o":"m 439 947 l 649 949 q 665 949 657 949 l 881 949 l 888 944 q 883 896 913 929 q 803 844 857 860 q 707 840 794 842 l 619 840 l 611 828 q 571 746 592 801 q 490 465 543 679 q 404 208 444 290 q 347 119 379 157 q 339 110 340 111 q 463 108 339 108 q 608 117 604 108 q 626 146 608 128 q 729 196 674 192 q 750 192 743 196 q 749 143 767 179 q 669 58 725 94 q 549 7 611 19 q 339 0 514 0 l 235 0 l -29 0 l -35 4 q -40 39 -51 15 q 24 94 -24 72 q 83 107 49 107 q 138 108 86 107 l 215 110 l 224 118 q 299 267 261 160 q 340 415 317 324 l 385 590 q 488 826 431 749 l 497 840 l 442 840 q 267 832 326 840 q 210 818 219 825 q 192 788 200 814 q 147 733 182 757 q 72 704 110 708 q 53 708 58 704 q 44 746 35 718 q 199 900 76 843 q 219 910 208 906 q 439 947 304 943 z "},"J":{"ha":942,"x_min":57,"x_max":1164,"o":"m 806 946 q 986 949 833 949 l 1147 949 l 1153 944 q 1164 924 1164 938 q 1144 890 1161 907 q 1040 840 1100 843 q 1013 835 1026 840 q 974 797 996 825 q 872 600 919 728 q 774 264 828 479 q 743 158 757 196 q 539 -87 682 7 q 488 -117 514 -104 q 310 -165 400 -161 q 182 -140 233 -167 q 76 -25 103 -99 q 71 99 57 29 q 94 142 76 124 q 142 175 114 161 q 192 189 171 188 q 211 186 206 189 q 221 149 228 178 q 226 56 211 103 q 307 -36 246 -7 q 414 -56 363 -62 q 518 0 468 -50 q 599 122 569 51 q 629 238 606 142 q 694 471 669 392 q 878 826 774 718 l 890 840 l 808 840 q 683 831 717 839 q 553 747 606 810 q 503 650 519 708 q 458 597 494 622 q 379 569 418 569 q 363 574 368 569 q 354 607 349 582 q 360 624 356 613 q 481 799 392 721 q 790 944 618 922 q 806 946 799 944 z "},"K":{"ha":1058,"x_min":44,"x_max":1017,"o":"m 375 978 l 392 979 l 393 979 q 411 975 404 979 q 421 946 422 969 q 421 935 421 942 q 311 378 410 700 q 308 371 310 375 q 196 50 250 178 q 189 33 192 38 q 131 -15 171 4 q 72 -31 100 -31 q 56 -26 61 -31 q 44 -8 44 -19 q 60 35 44 -3 q 219 540 158 294 q 260 754 244 646 q 267 839 269 839 q 240 828 267 842 q 176 807 200 808 q 157 811 163 807 q 144 831 144 817 q 193 890 144 858 q 344 967 222 911 q 360 974 357 974 q 375 978 374 978 m 894 978 l 947 978 q 979 963 963 974 q 1017 890 1017 936 q 996 835 1017 856 q 971 818 985 825 q 928 807 949 807 q 911 813 918 807 q 899 844 899 821 q 896 869 899 863 q 871 883 890 879 q 850 882 863 886 q 706 803 796 865 q 503 632 563 710 q 485 581 483 606 q 486 567 485 575 q 596 247 504 429 q 665 131 632 176 q 763 63 721 58 q 894 146 868 74 q 915 179 899 164 q 981 206 944 206 q 999 200 992 206 q 1011 178 1011 192 q 983 110 1011 153 q 815 -11 928 26 q 704 -31 761 -29 q 640 -17 663 -31 q 628 -8 635 -12 q 479 197 553 43 q 383 449 417 322 q 376 599 357 556 q 586 815 410 682 q 885 976 775 956 q 894 978 890 978 z "},"L":{"ha":958,"x_min":36,"x_max":914,"o":"m 700 976 q 743 979 719 979 q 799 968 778 978 q 856 889 843 944 q 858 851 858 878 q 844 774 858 796 q 801 733 835 757 q 713 701 753 701 q 688 711 693 701 q 688 738 682 718 q 689 806 694 768 q 656 857 679 846 q 599 860 632 868 q 572 846 586 858 q 488 719 529 808 q 374 372 431 601 q 297 158 338 226 l 292 149 l 314 149 q 518 118 389 149 q 704 85 642 88 l 722 85 l 728 94 q 743 126 738 107 q 769 164 750 146 q 878 217 819 214 q 900 214 893 217 q 910 193 914 206 q 879 124 904 164 q 811 51 853 83 q 682 -18 749 0 q 586 -31 640 -31 q 385 3 513 -29 q 222 32 271 29 l 201 33 l 188 21 q 135 -14 164 1 q 78 -31 104 -29 q 57 -28 63 -31 q 49 -21 54 -26 q 89 51 36 1 q 132 106 114 75 q 207 308 175 174 q 378 763 286 628 q 408 804 392 785 q 485 882 433 838 q 700 976 586 961 z "},"M":{"ha":1668,"x_min":42,"x_max":1606,"o":"m 575 978 l 593 979 l 594 979 q 613 975 606 979 q 621 964 619 968 q 629 928 625 957 q 753 419 676 672 q 821 240 789 301 l 828 226 l 865 263 q 1051 457 953 347 l 1476 940 q 1503 969 1501 968 q 1526 979 1517 979 q 1538 974 1533 979 q 1546 958 1544 967 q 1546 910 1554 938 l 1526 815 q 1458 311 1481 567 q 1458 113 1449 203 q 1467 75 1460 82 q 1488 75 1474 68 l 1499 81 q 1531 94 1529 94 q 1585 100 1569 108 q 1592 63 1606 89 q 1553 22 1582 42 q 1449 -29 1507 -8 q 1386 -39 1418 -39 l 1363 -39 l 1350 -33 q 1311 13 1317 -17 q 1303 197 1297 60 q 1354 638 1313 367 q 1358 657 1358 656 l 1318 611 l 997 254 q 801 60 886 135 q 790 51 793 53 q 775 47 786 50 q 761 50 767 47 q 739 78 751 57 q 654 249 690 154 q 540 649 603 382 l 532 681 l 531 676 q 526 663 529 671 q 464 444 510 586 q 328 104 393 235 q 182 -67 250 -49 q 156 -69 172 -69 q 106 -57 128 -67 q 47 -8 65 -42 q 42 17 43 -1 q 49 65 42 42 q 99 136 68 122 q 111 139 104 139 q 124 133 118 139 q 154 107 139 114 q 197 93 178 96 l 211 92 l 218 94 q 317 272 250 110 q 444 663 400 479 q 486 890 476 799 l 490 913 q 551 969 501 947 q 575 978 563 975 z "},"N":{"ha":1139,"x_min":-47,"x_max":1367,"o":"m 1311 1108 q 1331 1110 1314 1110 q 1350 1107 1346 1110 q 1364 1060 1367 1096 q 1322 964 1358 1001 q 1307 953 1315 956 q 1282 949 1299 949 q 1179 925 1226 944 q 1122 886 1136 906 q 1074 747 1113 868 q 894 100 979 443 l 876 26 l 874 18 q 821 -37 867 -12 q 815 -40 818 -39 q 769 -50 792 -50 q 740 -35 751 -50 q 728 -17 736 -29 q 590 246 649 103 q 435 681 515 431 l 426 707 l 417 661 q 308 257 374 454 q 233 68 265 132 q 210 25 222 44 q 107 -68 161 -56 q 53 -65 86 -72 q -26 -14 -1 -50 q -29 -8 -28 -11 q -17 89 -47 28 q 8 126 -6 113 q 35 139 21 139 q 47 133 43 139 q 81 107 67 114 q 133 93 108 93 q 150 96 144 93 q 178 135 161 103 q 238 290 206 189 q 365 869 332 579 q 371 911 371 910 q 422 965 378 940 q 447 975 435 972 l 472 979 q 492 975 486 979 q 500 968 500 969 q 514 925 507 956 q 696 383 593 649 q 774 203 740 269 q 818 122 814 122 l 824 142 q 929 535 844 231 q 1078 974 1035 897 q 1108 1017 1092 999 q 1311 1108 1192 1100 z "},"O":{"ha":1106,"x_min":60,"x_max":1082,"o":"m 518 976 q 538 979 529 979 q 556 975 549 979 q 567 958 567 968 q 558 935 567 949 q 501 886 544 913 q 435 840 468 867 q 361 767 385 794 q 249 546 278 664 q 267 231 204 369 q 369 114 303 153 q 379 108 375 111 q 553 82 464 67 q 783 218 681 101 q 911 464 878 322 q 889 779 956 658 q 858 822 876 804 q 793 861 831 847 q 707 868 742 875 q 649 828 682 861 q 556 678 599 774 q 521 625 539 642 q 428 586 475 586 q 410 590 415 586 q 399 611 399 597 q 450 721 406 642 q 453 726 451 724 q 554 856 503 808 q 783 976 660 957 q 876 976 825 982 q 882 976 879 976 q 1025 883 974 958 q 1076 728 1064 822 q 1078 617 1082 688 q 1076 606 1076 610 q 1049 469 1068 528 q 835 146 992 283 q 817 131 826 138 q 410 -31 622 -31 q 231 19 308 -31 q 88 249 117 92 q 111 539 60 392 q 190 701 136 615 q 433 936 285 840 q 518 976 490 971 z "},"P":{"ha":967,"x_min":22,"x_max":1031,"o":"m 454 947 l 719 947 q 897 901 826 939 q 1001 801 974 861 q 1010 665 1031 743 q 806 403 971 515 q 721 354 765 376 q 450 285 589 289 l 422 285 l 415 289 l 408 293 l 393 246 q 306 7 353 122 q 278 -40 294 -22 q 178 -85 235 -81 q 160 -81 167 -85 q 150 -71 156 -78 q 161 -28 147 -62 q 358 675 303 314 q 378 839 381 833 q 322 832 374 842 q 210 789 244 819 q 176 732 188 767 q 156 696 169 714 q 50 647 106 653 q 26 660 32 647 q 29 692 22 668 q 135 832 57 772 q 454 947 263 932 m 604 839 q 524 839 549 844 q 510 733 524 817 q 426 354 479 532 l 424 344 l 431 351 q 510 392 467 385 q 531 393 515 393 q 593 399 551 393 q 828 543 754 425 q 858 614 849 576 q 843 738 879 683 q 799 783 829 761 q 604 839 725 831 z "},"Q":{"ha":1135,"x_min":125,"x_max":1100,"o":"m 724 978 l 822 976 q 825 976 824 976 q 910 949 872 968 q 1038 818 992 907 q 1075 624 1076 733 q 1031 421 1071 511 q 743 89 950 225 q 649 35 697 60 q 567 0 606 15 q 569 -4 563 -1 q 578 -7 571 -4 q 629 -25 590 -11 q 871 -79 779 -79 q 924 -62 907 -81 q 943 -28 933 -53 q 965 8 949 -8 q 1067 54 1014 54 q 1083 50 1078 54 q 1090 14 1100 42 q 957 -137 1061 -75 q 900 -165 929 -154 q 764 -189 833 -190 q 522 -136 665 -186 q 478 -121 503 -129 q 210 -54 311 -60 q 182 -50 188 -54 q 171 -31 171 -44 q 225 33 171 0 q 268 51 247 46 q 319 54 271 53 q 515 75 442 58 q 735 182 638 101 q 804 250 765 207 q 906 444 879 342 q 881 751 954 624 q 854 790 869 772 q 710 868 801 854 q 631 868 669 874 q 442 765 526 850 q 351 635 386 706 q 328 365 281 486 q 333 353 331 360 q 408 272 363 294 q 483 251 439 256 q 621 274 544 244 q 689 292 668 292 q 704 288 697 292 q 710 251 721 276 q 693 231 707 244 q 631 190 672 208 q 413 142 522 146 q 285 168 338 140 q 186 271 219 201 q 194 571 125 399 q 272 708 224 643 q 589 946 397 875 q 724 978 657 971 z "},"R":{"ha":1178,"x_min":22,"x_max":1185,"o":"m 454 947 l 721 947 q 850 933 799 943 q 988 860 947 914 q 1011 811 1003 840 q 1014 749 1019 782 q 836 488 994 597 q 729 428 792 456 l 711 419 l 718 408 q 783 267 740 374 q 858 113 829 149 q 904 79 878 85 q 983 100 943 72 q 1021 136 1003 114 q 1065 175 1044 163 q 1133 196 1103 196 q 1151 193 1147 196 q 1113 103 1185 174 q 860 -28 1001 -8 q 817 -31 838 -31 q 768 -21 788 -31 q 694 53 726 -1 q 633 189 668 96 q 567 331 593 293 q 528 372 544 364 q 499 379 507 379 q 478 393 485 379 q 499 440 471 413 q 546 474 518 460 q 607 488 574 486 q 739 518 679 492 q 851 644 822 558 q 863 707 863 678 q 853 756 863 736 q 772 815 835 794 q 550 840 696 840 q 525 838 525 840 l 519 799 q 344 125 479 463 q 293 18 308 32 q 286 11 290 15 q 190 -31 240 -31 q 174 -26 179 -31 q 163 -8 163 -19 q 169 13 163 -4 q 222 146 201 89 q 361 693 324 422 q 378 839 382 831 q 322 832 374 842 q 210 789 244 819 q 176 732 188 767 q 156 696 169 714 q 50 647 106 653 q 26 660 32 647 q 29 692 22 668 q 135 832 57 772 q 454 947 263 932 z "},"S":{"ha":842,"x_min":7,"x_max":903,"o":"m 624 976 q 732 975 674 985 q 825 947 785 967 q 872 911 861 929 q 885 793 903 865 q 861 751 878 769 q 817 721 843 735 q 756 704 786 704 q 733 717 740 704 q 735 747 729 724 q 724 828 750 799 q 607 868 700 856 q 582 871 594 869 q 472 846 519 874 q 418 768 433 822 q 418 706 411 736 q 460 636 429 667 q 576 563 494 604 q 678 507 643 529 q 796 360 778 442 q 794 283 801 321 q 753 185 785 235 q 496 1 669 60 q 408 -21 453 -12 q 307 -29 365 -29 q 228 -24 261 -31 q 53 85 118 0 q 36 233 7 149 q 121 349 60 307 q 225 386 171 382 q 247 383 242 386 q 254 347 267 372 q 196 294 240 317 l 188 290 l 183 276 q 178 224 174 246 q 192 181 179 201 q 276 107 225 132 q 467 83 364 67 q 642 222 613 110 q 599 367 663 301 q 457 457 554 410 q 396 488 397 488 q 263 678 258 568 q 286 765 264 719 q 464 929 336 865 q 624 976 544 968 z "},"T":{"ha":757,"x_min":44,"x_max":1163,"o":"m 1101 993 q 1144 993 1131 1000 q 1150 957 1163 985 q 1046 863 1126 901 q 994 843 1019 850 q 854 833 958 835 l 815 833 l 683 833 l 608 538 l 529 219 q 475 65 506 138 q 439 -19 447 -3 q 349 -86 413 -61 q 331 -92 339 -89 q 288 -92 300 -99 q 276 -74 276 -86 q 292 -36 278 -69 q 367 174 340 72 q 449 501 376 203 q 529 813 524 800 q 539 826 531 819 l 544 833 l 407 833 q 261 831 268 832 q 235 813 246 825 q 215 753 215 785 q 210 733 215 744 q 192 708 207 726 q 111 660 158 676 q 81 654 100 656 q 58 657 63 654 q 49 699 44 664 q 168 865 63 789 q 235 906 199 888 q 361 946 297 938 q 699 949 376 949 l 1018 949 l 1031 957 q 1101 993 1061 981 z "},"U":{"ha":869,"x_min":-24,"x_max":954,"o":"m 238 946 q 301 946 279 951 q 333 929 315 944 q 344 811 365 897 q 251 569 328 742 q 161 347 186 422 q 132 183 126 247 q 164 100 138 131 q 217 78 182 82 q 344 147 258 76 q 469 278 407 204 q 726 675 622 460 q 767 769 750 722 q 808 882 801 865 q 847 921 819 901 q 897 944 868 936 l 922 949 q 942 946 936 949 q 954 926 954 938 q 904 779 954 900 q 835 569 878 714 q 747 246 768 349 q 728 85 724 138 q 735 72 728 75 q 761 83 733 72 q 821 103 794 101 q 842 100 835 103 q 849 64 858 89 q 810 24 838 44 q 713 -26 776 0 q 706 -29 708 -28 q 647 -37 675 -37 l 624 -37 l 613 -32 q 576 13 581 -18 q 593 176 568 54 q 594 186 593 182 q 624 306 614 269 q 629 324 629 322 l 608 300 q 283 14 440 92 q 131 -31 204 -26 q 54 -15 88 -32 q -1 44 17 7 q -18 100 -12 67 q -19 175 -24 125 q -18 185 -18 182 q 11 300 -11 229 q 107 535 43 389 q 183 725 164 664 q 189 838 215 825 q 150 836 174 843 q 117 821 138 833 q 39 793 75 793 q 13 807 18 793 q 15 831 7 815 q 69 882 25 853 q 238 946 151 938 z "},"V":{"ha":851,"x_min":19,"x_max":926,"o":"m 115 947 q 183 944 139 953 q 268 904 222 938 q 406 518 386 815 q 403 275 413 414 q 393 161 400 201 l 393 156 l 401 163 q 749 535 633 363 q 815 667 801 615 q 815 718 822 692 q 768 774 801 756 q 717 788 744 785 q 700 790 706 788 q 688 838 683 801 q 729 935 692 897 q 744 946 738 942 q 768 949 751 949 q 844 922 810 947 q 900 844 883 896 q 897 669 926 769 q 544 151 836 440 q 288 -69 408 18 q 263 -81 271 -81 q 250 -75 256 -81 q 242 -8 233 -58 q 267 221 260 94 q 258 568 281 411 q 154 813 233 747 q 58 847 117 843 q 38 853 47 847 q 31 889 19 863 q 60 922 42 908 q 115 947 88 943 z "},"W":{"ha":1372,"x_min":24,"x_max":1444,"o":"m 115 947 q 171 946 144 950 q 244 917 204 943 q 324 824 290 888 q 358 258 406 653 l 356 228 q 424 317 358 228 q 739 821 599 556 q 753 847 753 849 q 750 860 756 847 q 749 878 747 869 q 806 936 756 913 q 829 946 817 943 q 850 949 836 946 q 871 944 864 949 q 894 893 879 939 q 897 886 896 890 q 1013 389 976 650 q 1033 196 1029 269 q 1036 176 1035 178 q 1047 188 1038 175 q 1051 193 1050 190 q 1311 599 1240 432 q 1332 749 1354 700 q 1271 788 1313 783 q 1249 800 1256 788 q 1251 878 1233 828 q 1300 946 1271 932 q 1322 949 1307 949 q 1424 860 1396 944 q 1426 706 1444 799 q 1085 89 1379 464 q 1060 57 1072 74 q 950 -71 969 -56 q 926 -81 938 -81 q 915 -75 919 -81 q 904 -15 904 -58 q 828 599 896 308 q 789 740 806 696 q 786 738 789 743 q 767 703 782 731 q 371 100 597 388 q 233 -68 279 -21 q 207 -81 219 -81 q 194 -75 200 -81 q 185 -36 183 -64 q 188 -8 185 -17 q 226 235 207 71 q 240 436 239 346 q 193 750 243 646 q 74 844 151 833 q 51 847 57 847 q 29 863 35 847 q 31 889 24 872 q 60 922 42 908 q 115 947 88 943 z "},"X":{"ha":990,"x_min":60,"x_max":1131,"o":"m 521 947 l 590 947 q 629 929 610 943 q 685 800 675 896 l 701 588 q 793 646 701 586 q 957 768 913 724 q 968 788 967 779 q 958 831 972 814 q 935 840 949 840 q 917 850 924 840 q 913 863 913 854 q 957 921 913 890 q 1040 949 997 949 q 1088 933 1065 949 q 1118 838 1131 906 q 939 651 1104 768 q 760 531 869 600 q 708 494 708 500 l 729 221 q 758 128 735 157 q 799 108 771 113 l 808 108 l 817 117 q 861 146 835 132 q 911 160 888 158 q 931 156 925 160 q 943 136 943 149 q 894 60 940 97 q 767 3 840 14 q 678 1 728 -3 q 669 3 672 3 q 629 24 647 8 q 583 115 596 50 q 567 285 575 156 q 558 404 558 403 q 443 332 554 404 q 235 181 281 226 q 224 161 225 169 q 233 118 219 135 q 246 111 239 113 q 260 108 257 108 q 278 96 272 108 q 253 40 290 75 q 175 1 217 8 q 131 3 146 -1 q 93 25 114 7 q 75 115 60 58 q 82 136 78 126 q 274 313 115 204 q 521 474 367 379 q 551 496 551 492 l 533 729 q 482 838 522 825 q 453 839 453 842 l 442 829 q 353 789 400 792 q 331 793 338 789 q 321 804 325 796 q 321 819 319 810 q 392 906 333 867 q 521 947 443 942 z "},"Y":{"ha":928,"x_min":36,"x_max":992,"o":"m 261 947 q 336 944 301 951 q 417 910 374 938 q 586 526 549 819 q 597 286 597 422 q 599 196 597 236 l 617 215 q 896 674 836 458 q 892 756 908 719 q 853 794 879 782 q 804 808 832 806 q 779 824 786 808 q 792 913 763 860 q 824 946 806 938 q 849 949 831 949 q 900 938 881 946 q 992 783 985 897 q 992 758 992 771 q 979 681 990 721 q 668 138 913 417 q 579 43 625 89 q 276 -189 400 -136 q 239 -201 256 -199 q 158 -196 201 -211 q 61 -108 93 -174 q 46 -6 36 -54 q 90 67 57 47 q 132 33 125 86 q 135 14 135 19 q 169 -36 143 -15 q 240 -62 199 -58 q 264 -62 254 -64 q 440 47 324 -49 l 457 61 l 457 69 q 461 331 467 175 q 460 351 460 343 q 367 750 443 625 q 224 846 313 833 l 213 847 l 203 838 q 165 811 188 822 q 122 800 144 801 l 108 800 l 101 804 q 118 872 72 824 q 261 947 179 936 z "},"Z":{"ha":1007,"x_min":53,"x_max":1063,"o":"m 607 947 q 657 947 613 950 q 806 936 708 947 q 938 926 893 926 l 963 926 l 976 933 q 1031 949 1006 947 q 1051 946 1046 949 q 1063 929 1063 940 q 1028 872 1063 915 q 1006 846 1021 864 q 781 596 910 731 l 749 563 l 768 560 l 797 557 l 799 557 q 843 526 833 550 q 817 465 857 496 q 760 446 790 446 q 743 450 747 446 q 733 457 735 456 q 729 461 731 461 q 679 468 725 465 l 656 469 l 618 433 q 306 146 475 294 l 297 140 l 322 139 q 550 128 394 139 q 717 117 639 119 l 761 115 l 765 119 q 817 221 797 157 q 832 254 822 240 q 924 313 865 294 q 932 315 928 314 q 976 315 961 322 q 985 296 988 308 q 961 225 981 267 q 910 140 940 179 q 847 78 881 107 q 685 3 768 14 q 425 11 633 -6 q 197 24 246 26 q 132 11 163 22 q 82 0 99 0 q 58 7 65 0 q 54 25 53 15 q 107 88 61 47 q 115 94 111 90 q 510 450 335 282 l 529 469 l 468 469 l 408 469 l 401 475 q 388 500 388 485 q 438 554 392 533 q 514 563 456 563 q 543 563 522 563 l 624 563 l 658 599 q 824 782 769 718 l 847 810 l 813 810 q 672 821 751 813 q 483 826 524 838 q 449 804 464 821 q 429 764 436 786 q 421 744 422 746 q 343 683 397 710 q 293 671 318 672 q 272 674 278 671 q 261 690 261 681 q 278 739 261 706 q 444 897 324 833 q 588 944 515 935 q 607 947 604 947 z "},"[":{"ha":926,"x_min":76,"x_max":849,"o":"m 92 828 q 104 831 100 831 q 128 818 119 831 l 132 813 l 132 525 l 133 239 l 136 225 q 190 126 147 171 q 414 28 268 43 q 497 26 456 24 q 736 128 653 39 q 792 243 783 179 q 793 532 793 250 l 793 810 l 796 815 q 806 826 799 819 q 821 831 814 831 q 836 826 828 831 l 844 817 l 846 815 l 849 810 l 849 522 q 843 213 847 228 l 840 201 q 785 97 828 147 q 535 -25 697 -3 q 463 -31 499 -31 q 179 61 294 -31 q 121 124 144 89 q 78 240 85 176 q 76 533 76 250 l 78 813 l 82 818 q 92 828 85 822 z "},"\\":{"ha":926,"x_min":76,"x_max":849,"o":"m 421 829 q 501 829 461 832 q 769 719 669 817 q 804 676 789 699 q 847 563 842 619 q 849 269 849 554 l 849 -10 l 846 -15 q 811 -29 835 -37 q 799 -18 803 -26 l 794 -12 l 793 275 l 792 563 l 789 575 q 735 674 778 629 q 511 772 657 757 q 428 774 469 776 q 189 672 272 761 q 133 557 142 621 q 132 268 132 550 l 132 -10 l 129 -15 q 119 -25 125 -22 q 104 -29 114 -29 q 89 -25 94 -29 l 79 -15 l 76 -10 l 76 278 q 82 588 78 572 l 85 599 q 140 703 97 653 q 386 825 226 800 q 421 829 403 828 z "},"]":{"ha":926,"x_min":76,"x_max":849,"o":"m 92 828 q 104 831 100 831 q 128 818 119 831 l 132 813 l 132 525 l 133 239 l 136 225 q 190 126 147 171 q 414 28 268 43 q 497 26 456 24 q 736 128 653 39 q 792 243 783 179 q 793 532 793 250 l 793 810 l 796 815 q 806 826 799 819 q 821 831 814 831 q 836 826 828 831 l 844 817 l 846 815 l 849 810 l 849 522 q 843 213 847 228 l 840 201 q 785 97 828 147 q 535 -25 697 -3 q 463 -31 499 -31 q 179 61 294 -31 q 121 124 144 89 q 78 240 85 176 q 76 533 76 250 l 78 813 l 82 818 q 92 828 85 822 m 451 696 q 483 690 467 706 q 490 631 490 682 q 490 564 490 614 l 490 451 l 603 451 l 715 451 l 722 447 q 733 436 731 444 q 738 423 738 429 q 733 411 738 417 q 722 400 731 403 l 715 396 l 603 396 l 490 396 l 490 283 q 488 165 490 171 q 469 150 483 154 q 456 150 463 149 q 438 165 442 154 q 435 283 435 171 l 435 396 l 322 396 l 210 396 l 203 400 q 192 411 194 403 q 192 436 185 424 q 203 447 194 444 l 210 451 l 322 451 l 435 451 l 435 564 q 438 683 435 678 q 451 696 442 692 z "},"^":{"ha":926,"x_min":76,"x_max":849,"o":"m 450 828 q 483 821 471 839 q 668 410 485 819 q 849 -6 849 4 q 825 -31 847 -26 q 806 -26 815 -32 q 792 -6 800 -22 l 624 372 l 463 733 l 301 372 l 133 -6 q 119 -26 125 -22 q 82 -21 99 -39 q 76 -6 76 -14 q 257 410 76 4 q 442 821 440 819 q 450 828 447 826 z "},"_":{"ha":926,"x_min":76,"x_max":849,"o":"m 92 828 q 119 826 107 835 q 133 806 125 822 l 301 428 l 463 67 l 624 428 l 792 806 q 806 826 800 822 q 843 821 826 839 q 849 806 849 814 q 668 390 849 796 q 483 -21 485 -19 q 463 -31 476 -31 q 442 -21 449 -31 q 257 390 440 -19 q 76 806 76 796 q 92 828 79 819 z "},"`":{"ha":849,"x_min":76,"x_max":771,"o":"m 92 960 q 107 964 99 964 q 129 949 121 961 l 132 943 l 132 726 l 132 510 l 440 510 l 750 510 l 756 507 q 767 497 760 504 q 771 482 771 489 q 767 467 771 475 q 756 457 760 460 l 750 454 l 440 454 l 132 454 l 132 238 l 132 21 l 129 15 q 107 0 121 3 q 92 4 99 0 q 81 15 83 7 l 76 22 l 76 482 l 76 942 l 81 949 q 92 960 83 957 z "},"a":{"ha":849,"x_min":74,"x_max":771,"o":"m 731 960 q 746 964 738 964 q 768 949 760 961 l 771 943 l 771 482 l 771 21 l 768 15 q 746 0 760 3 q 731 4 738 0 q 719 15 722 7 l 715 22 l 715 239 l 715 454 l 407 454 l 99 454 l 92 458 q 81 469 83 461 q 81 494 74 482 q 92 506 83 503 l 99 510 l 407 510 l 715 510 l 715 725 l 715 942 l 719 949 q 731 960 722 957 z "},"b":{"ha":617,"x_min":242,"x_max":586,"o":"m 257 1038 q 272 1042 264 1042 q 294 1026 286 1039 l 297 1021 l 297 364 l 297 -292 l 431 -292 q 569 -294 564 -292 q 585 -312 581 -301 q 585 -326 586 -319 q 569 -344 581 -337 q 414 -347 564 -347 l 264 -347 l 257 -343 q 246 -332 249 -340 l 242 -325 l 242 347 l 242 1019 l 246 1026 q 257 1038 249 1035 z "},"c":{"ha":617,"x_min":29,"x_max":374,"o":"m 333 1038 q 349 1042 340 1042 q 371 1026 363 1039 l 374 1021 l 374 347 l 374 -326 l 371 -332 q 361 -342 367 -339 l 356 -346 l 204 -347 q 38 -339 49 -347 q 31 -326 32 -333 q 31 -312 29 -319 q 47 -294 35 -301 q 185 -292 51 -292 l 318 -292 l 318 364 l 318 1019 l 322 1026 q 333 1038 325 1035 z "},"d":{"ha":617,"x_min":242,"x_max":586,"o":"m 257 1038 l 264 1042 l 414 1042 q 569 1039 564 1042 q 585 1021 581 1032 q 585 1007 586 1014 q 569 989 581 996 q 431 986 564 986 l 297 986 l 297 331 l 297 -326 l 294 -332 q 272 -347 286 -344 q 257 -343 264 -347 q 246 -332 249 -340 l 242 -325 l 242 347 l 242 1019 l 246 1026 q 257 1038 249 1035 z "},"e":{"ha":617,"x_min":29,"x_max":374,"o":"m 47 1039 q 204 1042 51 1042 l 356 1042 l 361 1038 q 371 1026 368 1031 l 374 1021 l 374 347 l 374 -326 l 371 -332 q 349 -347 363 -344 q 333 -343 340 -347 q 322 -332 325 -340 l 318 -325 l 318 331 l 318 986 l 185 986 q 47 989 51 986 q 31 1007 35 996 q 31 1021 29 1014 q 47 1039 35 1032 z "},"f":{"ha":694,"x_min":83,"x_max":610,"o":"m 525 1040 q 567 1042 528 1042 l 601 1042 l 606 1038 l 610 1033 l 610 1010 l 610 985 l 606 981 q 583 976 603 976 q 419 901 456 971 q 415 890 417 896 l 413 882 l 411 694 q 408 497 410 506 q 335 392 392 432 q 260 354 303 367 l 240 347 l 260 340 q 335 303 303 328 q 408 197 392 263 q 411 0 410 189 l 413 -186 l 415 -196 q 558 -281 440 -267 q 583 -282 571 -282 q 606 -286 603 -282 l 610 -290 l 610 -315 l 610 -339 l 606 -343 l 601 -347 l 558 -347 q 444 -333 493 -346 q 329 -275 369 -314 q 286 -199 297 -243 q 283 -4 283 -190 q 278 201 282 190 q 274 211 278 203 q 167 304 249 276 q 113 314 140 313 q 85 324 88 315 q 83 347 83 328 q 92 378 83 375 q 113 381 96 379 q 253 449 203 386 q 274 483 267 465 q 282 556 282 501 q 283 699 282 558 q 286 893 283 885 q 329 969 297 938 q 354 989 332 972 q 417 1019 389 1011 q 525 1040 458 1035 z "},"g":{"ha":694,"x_min":83,"x_max":610,"o":"m 90 1040 q 185 1040 99 1046 q 194 1039 190 1039 q 365 968 307 1025 q 408 893 397 939 q 411 699 411 885 q 415 500 413 510 q 453 435 426 461 q 581 381 504 385 q 608 371 606 379 q 610 347 610 367 q 601 317 610 319 q 581 314 597 315 q 453 260 504 310 q 415 194 426 233 q 411 -4 413 185 q 408 -199 411 -190 q 365 -274 397 -244 q 194 -344 307 -331 q 92 -346 136 -351 q 83 -312 83 -343 l 83 -290 l 88 -286 q 111 -282 90 -282 q 275 -207 239 -276 q 279 -196 278 -201 l 282 -186 l 283 0 q 289 207 285 193 l 293 217 q 383 318 314 279 q 440 343 411 333 q 453 347 451 347 l 440 351 q 383 376 411 361 q 293 478 314 415 q 285 556 285 499 l 283 694 l 282 882 l 279 890 q 136 975 254 961 q 111 976 124 976 q 88 981 90 976 l 83 985 l 83 1008 q 90 1040 83 1035 z "},"h":{"ha":540,"x_min":153,"x_max":463,"o":"m 425 1040 l 433 1042 l 435 1042 q 463 1017 456 1042 q 338 679 463 1010 q 211 347 211 350 q 338 15 211 344 q 463 -322 463 -315 q 447 -344 460 -336 q 411 -333 428 -356 q 281 7 404 -319 q 153 347 153 342 q 281 688 153 353 q 411 1028 404 1014 q 425 1040 415 1035 z "},"i":{"ha":540,"x_min":76,"x_max":386,"o":"m 92 1039 q 128 1028 111 1050 q 258 688 135 1014 q 386 347 386 353 q 258 7 386 342 q 128 -333 135 -319 q 92 -344 117 -354 q 76 -322 79 -336 q 201 15 76 -315 q 328 347 328 344 q 201 679 328 350 q 76 1017 76 1010 q 92 1039 79 1031 z "},"j":{"ha":386,"x_min":165,"x_max":221,"o":"m 181 1039 q 218 1026 200 1050 l 221 1021 l 221 347 l 221 -326 l 218 -332 q 208 -342 214 -339 q 193 -346 203 -346 q 178 -342 183 -346 q 168 -332 172 -339 l 165 -326 l 165 349 l 167 1024 l 171 1029 l 181 1039 z "},"k":{"ha":694,"x_min":183,"x_max":510,"o":"m 201 1039 q 236 1026 222 1050 q 239 347 239 1021 q 236 -332 239 -326 q 201 -346 225 -354 q 192 -339 196 -343 q 186 -314 186 -333 q 183 347 183 -267 q 185 1022 183 1015 q 201 1039 189 1033 m 471 1039 q 501 1033 485 1047 q 507 1008 507 1028 q 510 347 510 961 q 501 -339 510 -328 q 464 -342 483 -357 q 457 -332 460 -337 q 454 347 454 -326 q 457 1026 454 1021 q 471 1039 461 1035 z "},"l":{"ha":694,"x_min":24,"x_max":671,"o":"m 338 1068 q 347 1072 342 1072 q 363 1058 360 1072 l 367 1036 q 444 871 386 944 q 501 814 468 838 q 644 742 568 761 q 665 735 664 736 q 671 710 671 729 q 660 683 671 688 q 636 686 654 682 q 389 860 479 729 q 385 865 386 863 l 375 879 l 375 347 l 375 -185 l 385 -171 q 558 -21 449 -74 q 660 11 631 14 q 671 -15 671 8 q 665 -40 671 -35 q 644 -47 664 -42 q 501 -119 568 -67 q 444 -176 468 -143 q 367 -342 386 -250 l 363 -364 q 347 -378 360 -378 q 338 -374 342 -378 q 328 -342 332 -368 q 250 -176 311 -253 q 193 -119 226 -143 q 50 -47 126 -67 q 29 -40 31 -42 q 24 -15 24 -35 q 35 11 24 7 q 58 8 40 13 q 306 -165 215 -35 q 310 -171 308 -168 l 319 -185 l 319 347 l 319 879 l 310 865 q 138 715 246 768 q 35 683 61 679 q 24 710 24 686 q 29 735 24 729 q 50 742 31 736 q 193 814 126 761 q 250 871 226 838 q 328 1038 311 947 q 338 1068 332 1063 z "},"m":{"ha":849,"x_min":43,"x_max":804,"o":"m 414 1068 q 424 1072 418 1072 q 444 1049 435 1072 q 546 879 476 961 q 624 801 582 838 q 785 703 700 738 q 800 694 799 696 l 804 690 l 804 672 q 794 644 804 647 q 764 653 788 643 q 596 757 668 694 l 588 764 l 586 556 l 586 139 l 588 -69 l 596 -62 q 764 42 668 0 q 794 50 788 51 q 804 22 804 47 l 804 4 l 800 0 q 785 -8 799 -1 q 624 -107 700 -43 q 546 -183 589 -136 q 444 -353 476 -268 q 424 -378 435 -378 q 403 -353 413 -378 q 301 -183 371 -268 q 225 -107 265 -143 q 63 -8 146 -42 q 47 0 49 -1 l 43 4 l 43 22 q 53 50 43 47 q 85 42 60 51 q 251 -62 181 0 l 261 -69 l 261 139 l 261 556 l 261 764 l 251 757 q 85 653 181 694 q 53 644 60 643 q 43 672 43 647 l 43 690 l 47 694 q 63 703 49 696 q 225 801 146 736 q 301 879 272 844 q 403 1049 371 961 q 414 1068 414 1067 m 431 954 q 424 965 425 964 l 417 954 q 328 831 374 879 l 317 818 l 317 347 l 317 -124 l 328 -136 q 417 -260 374 -185 q 424 -271 422 -269 l 431 -260 q 519 -136 474 -185 l 531 -124 l 531 347 l 531 818 l 519 831 q 431 954 474 879 z "},"n":{"ha":694,"x_min":78,"x_max":617,"o":"m 92 1039 q 128 1028 111 1050 q 374 356 133 1018 q 617 -321 617 -315 q 613 -335 617 -326 l 603 -343 l 601 -344 q 565 -333 582 -356 q 319 339 560 -324 q 78 1015 78 1006 q 82 1029 78 1024 l 92 1039 z "},"o":{"ha":386,"x_min":67,"x_max":318,"o":"m 100 808 q 144 807 118 811 q 263 733 221 796 q 307 542 318 650 q 303 514 306 526 q 229 342 289 449 q 160 178 172 235 q 161 63 150 122 q 213 -47 174 -8 q 271 -76 240 -75 q 304 -86 294 -78 q 292 -111 318 -103 q 242 -114 275 -118 q 122 -39 164 -101 q 78 156 67 44 q 82 182 79 169 q 156 354 96 246 q 225 517 213 458 q 224 632 236 572 q 172 742 211 703 q 115 771 144 769 q 78 786 85 772 q 78 794 76 790 q 100 808 82 804 z "},"p":{"ha":1157,"x_min":97,"x_max":1185,"o":"m 1144 51 q 1169 53 1157 58 q 1185 31 1182 44 l 1185 22 l 861 -649 q 535 -1324 535 -1322 q 508 -1333 529 -1333 q 492 -1329 496 -1333 q 360 -1044 486 -1324 l 232 -764 q 188 -797 231 -764 q 138 -831 144 -832 q 118 -817 133 -831 q 101 -799 111 -808 q 103 -783 97 -792 l 301 -626 q 308 -624 304 -624 q 325 -637 318 -624 l 444 -899 l 558 -1149 l 844 -557 q 1133 42 1133 43 q 1144 51 1138 49 z "},"q":{"ha":1042,"x_min":32,"x_max":1013,"o":"m 40 947 q 63 949 43 949 q 413 947 214 942 q 465 940 460 949 q 467 888 472 929 q 465 879 467 881 q 440 871 463 871 q 410 871 432 871 q 328 861 333 869 q 325 468 325 858 l 325 78 l 521 78 l 715 78 l 715 468 q 713 861 715 858 q 631 871 707 869 q 575 879 579 871 q 574 932 568 890 q 575 940 574 939 q 600 947 579 949 q 632 947 607 947 q 921 946 742 942 q 949 947 938 947 q 1006 940 1000 949 q 1007 888 1013 929 q 1006 879 1007 881 q 981 871 1003 871 q 950 871 972 871 q 868 861 874 869 q 865 475 865 858 q 868 88 865 90 q 950 78 874 79 q 1000 75 994 78 q 1008 39 1008 72 q 1000 1 1008 7 l 183 0 q 40 1 42 0 q 32 39 32 7 q 40 75 32 72 q 90 78 46 78 q 172 88 167 79 q 175 475 175 90 q 172 861 175 858 q 90 871 167 869 q 40 874 46 871 q 32 910 32 876 q 40 947 32 942 z "},"r":{"ha":1157,"x_min":64,"x_max":1092,"o":"m 67 946 l 71 949 l 578 949 l 1085 949 l 1089 946 q 1092 939 1092 940 l 629 -25 q 624 -36 624 -35 q 578 -46 615 -46 q 532 -36 540 -46 l 69 925 q 64 939 64 938 q 67 946 64 940 m 947 814 q 618 815 947 815 q 289 813 289 815 l 618 129 l 947 814 z "},"s":{"ha":579,"x_min":68,"x_max":664,"o":"m 524 992 q 546 994 532 994 q 649 889 625 994 q 646 792 664 825 q 582 756 628 758 q 518 792 540 756 q 508 829 508 808 q 518 867 508 850 q 568 901 532 894 q 576 907 576 903 l 571 915 l 569 917 q 529 924 554 939 q 519 915 524 921 q 475 744 492 883 q 460 599 468 690 q 369 -15 433 331 q 351 -111 360 -67 q 219 -296 311 -267 q 167 -299 190 -303 q 83 -194 103 -283 q 86 -97 68 -131 q 150 -61 104 -64 q 214 -97 192 -61 q 224 -135 224 -114 q 214 -172 224 -156 q 164 -207 200 -200 q 156 -212 156 -208 q 174 -232 161 -226 q 200 -231 185 -239 q 233 -187 218 -222 q 274 97 251 -135 q 363 703 300 372 q 411 892 386 838 q 414 897 413 894 q 451 951 435 935 q 524 992 479 983 z "},"t":{"ha":926,"x_min":85,"x_max":840,"o":"m 100 828 q 138 815 119 839 l 140 810 l 140 432 l 140 56 l 463 56 l 785 56 l 785 432 l 785 810 l 788 815 q 797 826 790 819 q 813 831 806 831 q 828 826 819 831 q 838 815 835 819 l 840 810 l 840 415 l 840 21 l 838 15 q 828 6 833 8 l 822 1 l 465 0 l 107 0 l 100 4 q 89 15 92 7 l 85 22 l 85 418 l 86 813 l 90 818 l 100 828 z "},"u":{"ha":926,"x_min":85,"x_max":840,"o":"m 100 828 l 106 831 l 464 831 l 822 831 l 828 826 q 838 815 835 819 l 840 810 l 840 415 l 840 21 l 838 15 q 815 0 829 3 q 800 4 807 0 q 789 15 792 7 l 785 22 l 785 399 l 785 775 l 463 775 l 140 775 l 140 399 l 140 21 l 138 15 q 115 0 129 3 q 100 4 107 0 q 89 15 92 7 l 85 22 l 85 418 l 86 813 l 90 818 q 100 828 93 822 z "},"v":{"ha":1081,"x_min":117,"x_max":992,"o":"m 146 879 l 153 883 l 563 883 l 971 883 l 976 881 q 988 871 981 878 q 992 856 992 863 q 988 840 992 849 q 976 831 981 833 l 971 828 l 578 828 l 186 828 l 186 481 l 186 133 l 578 133 l 969 133 l 976 131 q 992 106 992 122 q 988 90 992 99 q 976 81 981 83 l 971 78 l 561 78 l 151 78 l 146 81 q 136 90 139 86 l 132 96 l 131 478 l 131 861 l 135 868 q 146 879 138 876 m 131 -139 l 139 -136 l 554 -136 l 969 -136 l 976 -139 q 992 -164 992 -147 q 988 -179 992 -171 q 976 -189 981 -186 l 971 -192 l 553 -192 l 136 -192 l 131 -189 q 121 -179 124 -183 q 117 -164 117 -174 q 131 -139 117 -147 z "},"w":{"ha":1081,"x_min":81,"x_max":964,"o":"m 103 881 l 108 883 l 518 883 l 928 883 l 933 881 q 944 871 938 878 l 949 865 l 949 481 l 949 96 l 944 90 q 933 81 938 83 l 928 78 l 518 78 l 108 78 l 103 81 q 93 90 96 86 q 89 106 89 96 q 103 131 89 122 l 111 133 l 501 133 l 893 133 l 893 481 l 893 828 l 501 828 l 108 828 l 103 831 q 93 840 96 836 q 89 856 89 846 q 93 871 89 865 q 103 881 96 875 m 103 -140 l 110 -136 l 525 -136 l 942 -136 l 949 -139 q 964 -164 964 -147 q 960 -179 964 -171 q 949 -189 953 -186 l 943 -192 l 525 -192 l 108 -192 l 103 -189 q 90 -154 81 -176 q 103 -140 94 -144 z "},"x":{"ha":617,"x_min":90,"x_max":532,"o":"m 282 978 q 446 925 376 989 q 465 903 457 914 q 493 846 485 874 q 500 799 500 821 q 454 736 500 747 q 436 733 446 733 q 403 742 419 733 q 372 804 368 761 q 392 844 375 829 l 406 854 q 413 857 411 857 q 393 881 413 864 q 336 911 369 903 q 285 911 310 917 q 239 872 260 901 q 214 803 222 849 q 213 717 207 760 q 268 608 225 649 q 328 572 289 589 q 457 483 408 532 q 499 425 482 457 q 518 338 518 382 q 507 265 518 296 q 417 146 483 189 q 407 140 413 143 q 396 135 397 135 l 400 131 q 418 118 407 128 q 500 22 472 78 q 511 -121 532 -44 q 454 -222 497 -178 q 386 -268 425 -251 q 204 -257 293 -308 q 167 -228 183 -244 q 135 -179 147 -207 q 115 -104 115 -140 q 161 -42 115 -53 q 179 -39 169 -39 q 235 -69 219 -39 q 235 -133 251 -100 q 210 -160 228 -150 q 203 -162 204 -162 q 222 -186 203 -169 q 279 -217 246 -208 q 331 -217 306 -222 q 376 -178 356 -207 q 401 -107 393 -154 q 403 -21 408 -67 q 347 86 389 46 q 289 122 326 106 q 160 211 207 163 q 117 271 133 238 q 97 357 97 311 q 108 429 97 399 q 199 549 132 506 q 208 554 203 551 q 219 560 218 560 l 215 564 q 197 576 208 567 q 115 672 143 617 q 97 785 90 721 q 140 892 107 847 q 183 936 156 918 q 282 978 231 971 m 313 511 q 288 511 299 515 q 217 417 235 499 q 213 389 214 403 q 222 281 204 333 q 286 194 243 225 q 326 183 310 179 q 400 286 383 197 q 403 306 401 296 q 393 414 411 361 q 313 511 368 479 z "},"y":{"ha":617,"x_min":76,"x_max":540,"o":"m 293 978 q 339 971 318 982 q 372 910 372 956 q 356 756 372 868 q 340 644 350 722 l 340 632 l 349 635 q 390 646 354 635 q 468 663 439 661 q 508 654 494 663 q 540 599 539 639 q 508 543 540 561 q 468 535 494 535 q 390 551 439 536 q 349 563 354 563 l 340 565 l 342 558 q 354 475 344 539 q 372 313 372 389 q 347 -233 372 53 q 339 -296 343 -292 l 335 -300 l 308 -300 l 282 -300 l 278 -296 q 269 -233 274 -292 q 244 313 244 53 q 263 475 244 389 q 275 558 272 539 l 276 565 l 268 563 q 226 551 263 563 q 149 535 178 536 q 108 543 122 535 q 76 599 78 558 q 108 654 76 636 q 149 663 122 663 q 226 646 178 661 q 268 635 263 635 l 276 632 l 276 644 q 261 756 267 722 q 247 933 238 904 q 293 978 256 967 z "},"z":{"ha":617,"x_min":64,"x_max":553,"o":"m 293 978 q 339 971 318 982 q 372 911 372 954 q 356 788 372 875 q 342 701 346 739 l 340 697 l 346 699 q 372 706 351 699 q 474 726 446 726 q 524 708 506 726 q 533 633 553 675 q 524 618 529 625 q 474 600 506 600 q 372 621 447 600 q 346 628 351 628 l 340 629 l 342 625 q 356 539 346 588 q 372 415 372 451 q 339 356 372 372 q 278 356 308 339 q 244 415 244 372 q 261 539 244 451 q 275 625 271 588 l 276 629 l 271 628 q 244 621 265 628 q 143 600 169 600 q 93 618 111 600 q 83 693 64 651 q 93 708 88 701 q 143 726 111 726 q 244 706 171 726 q 271 699 265 699 l 276 697 l 275 701 q 261 788 271 739 q 251 947 236 917 q 263 961 256 954 q 293 978 275 974 m 293 344 q 339 338 318 349 q 371 299 363 328 q 372 268 372 292 q 356 156 371 228 q 343 79 346 101 l 340 68 l 340 64 l 351 67 l 393 78 q 468 94 439 92 q 508 86 494 94 q 540 31 539 71 q 508 -25 540 -7 q 468 -33 494 -33 q 390 -17 439 -32 q 349 -6 354 -6 l 340 -3 l 340 -7 l 343 -18 q 356 -93 346 -43 q 372 -207 371 -168 q 364 -253 372 -237 q 308 -285 349 -283 q 253 -253 271 -285 q 244 -207 244 -237 q 261 -93 246 -168 q 274 -18 271 -43 l 276 -7 l 276 -3 l 268 -6 q 226 -17 263 -6 q 149 -33 178 -32 q 108 -25 122 -33 q 76 31 78 -10 q 108 86 76 68 q 149 94 122 94 q 224 78 178 92 l 265 67 l 276 64 l 276 68 l 274 79 q 261 156 271 101 q 244 268 246 228 q 253 314 244 299 q 293 344 265 338 z "},"{":{"ha":849,"x_min":56,"x_max":808,"o":"m 389 963 l 582 964 l 594 964 l 788 964 l 793 961 q 804 951 797 958 q 808 936 808 943 q 804 921 808 929 q 793 911 797 914 q 740 908 788 908 l 693 908 l 693 331 l 693 -249 l 690 -254 q 681 -264 686 -261 q 665 -268 675 -268 q 650 -264 656 -268 q 640 -254 644 -261 l 638 -249 l 638 331 l 638 908 l 589 908 l 540 908 l 540 331 l 540 -249 l 538 -254 q 528 -264 533 -261 q 513 -268 522 -268 q 497 -264 503 -268 q 488 -254 492 -261 l 485 -249 l 485 36 q 482 319 485 319 q 472 321 482 321 q 367 338 433 321 q 163 442 243 367 q 82 586 100 501 q 138 825 56 714 q 150 840 143 832 q 358 958 229 935 q 389 963 374 961 z "},"|":{"ha":1081,"x_min":36,"x_max":1044,"o":"m 510 1007 q 571 1007 539 1013 q 642 985 607 1003 q 779 799 750 932 q 782 788 781 793 q 785 739 785 772 q 782 690 785 706 q 688 522 764 588 l 681 515 l 694 485 l 710 453 l 722 464 q 847 511 772 514 q 917 492 886 510 q 1036 310 1010 444 q 1039 292 1038 300 q 1039 196 1044 244 q 1011 108 1029 144 q 947 22 985 54 q 814 -31 889 -26 q 672 15 726 -35 q 660 29 665 22 q 638 88 642 53 l 638 97 l 603 97 l 568 97 l 568 86 q 600 -124 568 -18 q 603 -168 610 -157 q 592 -178 596 -175 q 540 -181 586 -181 q 489 -178 494 -181 q 479 -168 482 -172 q 481 -124 471 -157 q 513 86 513 -18 l 513 97 l 478 97 l 443 97 l 443 88 q 382 -3 436 29 q 238 -28 318 -42 q 135 22 183 -18 q 69 108 96 54 q 42 196 51 144 q 42 292 36 236 q 154 486 64 432 q 186 501 169 496 q 343 476 274 532 q 358 464 351 471 l 371 453 l 386 485 l 400 515 l 393 522 q 343 578 364 547 q 299 690 308 629 q 299 788 290 739 q 431 981 324 924 q 439 985 435 983 q 510 1007 469 1001 z "},"}":{"ha":1081,"x_min":76,"x_max":1004,"o":"m 528 1007 q 564 996 550 1017 q 585 957 565 993 q 985 422 744 646 q 1004 392 1004 404 q 985 361 1004 379 q 585 -174 744 138 q 564 -212 565 -210 q 556 -221 561 -218 q 540 -225 550 -225 q 525 -221 531 -225 q 517 -212 519 -218 q 496 -174 515 -210 q 124 335 343 124 l 89 368 q 76 392 76 378 q 89 415 76 406 q 176 501 129 451 q 496 957 361 697 q 514 992 514 990 q 528 1007 514 999 m 547 907 q 540 919 540 918 l 533 907 q 171 415 381 621 l 146 392 l 171 368 q 533 -124 381 163 q 540 -136 540 -135 l 547 -124 q 910 368 700 163 l 935 392 l 910 415 q 547 907 700 621 z "},"~":{"ha":1081,"x_min":75,"x_max":1006,"o":"m 285 993 l 335 993 q 482 921 418 983 q 535 851 514 892 q 540 840 540 842 l 547 851 q 599 921 565 890 q 749 993 663 982 q 815 990 781 999 q 900 956 863 983 q 1001 739 985 892 q 1003 643 1006 697 q 836 315 989 486 q 703 182 803 279 q 615 75 643 122 q 572 -11 592 35 q 553 -43 563 -37 q 519 -36 532 -54 q 508 -11 517 -33 q 465 75 489 35 q 378 182 438 122 q 244 315 278 279 q 78 643 92 486 q 79 739 75 692 q 207 971 99 917 q 285 993 239 989 m 344 936 l 289 938 l 276 936 l 275 936 q 231 921 247 931 q 133 715 144 876 q 190 481 125 588 q 382 256 240 394 q 399 239 390 247 q 481 151 457 185 q 533 67 513 110 q 540 54 540 56 l 547 67 q 600 151 568 110 q 682 239 624 185 q 851 421 793 346 q 949 676 949 550 q 901 876 949 807 q 808 936 864 924 q 738 936 778 942 q 638 882 682 924 q 569 747 582 826 q 553 717 565 724 q 528 718 540 711 q 511 749 517 722 q 443 882 497 826 q 344 936 399 924 z "},"":{"ha":1081,"x_min":68,"x_max":1011,"o":"m 92 669 q 131 658 108 678 q 283 560 201 600 q 489 497 381 511 q 582 496 521 492 q 592 497 588 497 q 796 560 699 511 q 949 658 878 600 q 965 669 963 668 q 999 658 986 679 q 1000 632 1007 646 q 982 614 996 626 q 726 471 857 514 q 601 442 665 451 q 488 442 551 436 q 479 442 482 442 q 353 471 415 451 q 97 614 222 514 q 79 633 82 626 q 92 669 68 654 m 506 254 l 601 253 q 726 224 667 243 q 982 81 857 181 q 1000 63 996 68 q 989 26 1011 39 q 965 25 978 19 q 949 36 963 26 q 796 135 878 94 q 592 197 699 183 q 499 199 557 203 q 489 197 493 197 q 283 135 381 183 q 131 36 201 94 q 114 25 117 26 q 81 36 93 15 q 79 63 72 49 q 97 81 83 68 q 353 224 222 181 q 506 254 431 249 z "},"":{"ha":1389,"x_min":67,"x_max":1311,"o":"m 96 788 q 124 781 108 790 q 507 572 125 779 q 883 363 879 368 q 888 347 888 354 q 882 332 888 339 q 507 122 879 326 q 124 -86 125 -85 q 93 -92 106 -96 q 76 -65 76 -83 q 85 -46 76 -54 q 444 151 68 -54 l 800 349 q 444 543 799 349 q 86 740 88 738 q 82 778 67 756 q 96 788 88 785 m 519 788 q 547 781 532 790 q 931 572 549 779 q 1307 363 1303 368 q 1311 347 1311 354 q 1306 332 1311 339 q 931 122 1303 326 q 547 -86 549 -85 q 517 -92 529 -96 q 500 -65 500 -83 q 508 -46 500 -54 q 868 151 492 -54 l 1224 349 q 868 543 1222 349 q 510 740 511 738 q 506 778 490 756 q 519 788 511 785 z "},"":{"ha":1081,"x_min":117,"x_max":964,"o":"m 924 744 q 939 749 931 749 q 961 733 953 746 q 964 715 964 728 q 940 619 958 668 q 888 528 918 564 q 565 357 788 407 l 531 349 q 518 346 519 346 l 531 343 q 656 310 600 328 q 740 276 686 300 q 951 42 907 193 q 964 -24 961 8 q 961 -42 964 -36 q 926 -56 950 -64 q 914 -44 918 -53 q 907 -24 911 -42 q 675 244 885 161 q 190 318 504 313 q 131 321 136 318 q 121 331 124 325 q 117 346 117 336 q 121 361 117 356 q 131 371 124 367 q 190 374 136 374 q 390 385 283 375 q 842 561 724 418 q 907 711 896 626 q 924 744 910 738 z "},"":{"ha":1081,"x_min":115,"x_max":964,"o":"m 131 881 q 156 879 143 886 q 172 846 169 872 q 238 696 183 761 q 690 519 356 553 q 889 508 794 510 q 949 506 943 508 q 960 496 953 503 q 964 481 964 488 q 960 465 964 474 q 949 456 953 458 q 889 453 943 453 q 326 340 497 444 q 172 115 193 260 q 158 82 168 89 q 143 79 153 79 q 128 83 133 79 l 118 93 q 115 111 115 99 q 139 207 121 158 q 192 299 161 263 q 514 469 292 419 l 549 478 q 561 481 560 481 l 549 483 q 424 517 479 499 q 340 550 388 529 q 128 785 174 632 q 117 853 117 832 q 121 871 117 865 q 131 881 124 875 m 131 -139 l 136 -136 l 539 -136 l 943 -136 l 949 -139 q 960 -149 953 -142 q 964 -164 964 -157 q 960 -179 964 -171 q 949 -189 953 -186 l 943 -192 l 539 -192 l 136 -192 l 131 -189 q 121 -179 124 -183 q 117 -164 117 -174 q 121 -149 117 -154 q 131 -139 124 -144 z "},"":{"ha":1081,"x_min":117,"x_max":964,"o":"m 131 372 l 136 375 l 539 375 l 943 375 l 949 372 q 960 363 953 369 q 964 347 964 354 q 960 332 964 340 q 949 322 953 325 l 943 319 l 539 319 l 136 319 l 131 322 q 121 332 124 328 q 117 347 117 338 q 121 363 117 357 q 131 372 124 367 z "},"":{"ha":386,"x_min":93,"x_max":292,"o":"m 171 436 q 233 429 201 444 q 274 389 260 415 q 274 307 292 347 q 233 267 260 281 q 151 267 192 249 q 111 307 125 281 q 111 389 93 347 q 171 436 128 425 z "},"":{"ha":1081,"x_min":201,"x_max":881,"o":"m 219 678 q 243 679 233 685 q 394 532 247 676 l 540 386 l 685 531 q 840 682 831 676 q 850 682 844 682 q 874 658 871 681 q 872 643 875 650 q 725 493 869 638 l 581 347 l 725 201 q 872 51 869 57 q 863 17 881 31 q 850 13 857 13 q 818 32 839 11 q 685 164 803 46 l 540 308 l 394 163 q 243 15 247 18 q 219 17 233 10 q 208 28 211 19 q 207 51 201 39 q 354 203 211 60 l 499 347 l 354 492 q 207 643 211 635 q 208 667 201 656 q 219 678 211 675 z "},"":{"ha":694,"x_min":78,"x_max":614,"o":"m 333 644 l 349 646 l 350 646 q 369 640 364 643 q 400 604 396 629 q 393 506 401 597 l 383 413 q 456 465 385 413 l 532 521 q 550 522 536 522 q 588 507 572 522 q 604 458 608 488 q 575 421 600 433 l 493 382 l 418 347 q 499 308 418 346 q 586 267 590 265 q 601 207 614 246 q 599 201 600 204 q 571 174 592 183 q 550 171 564 171 q 532 174 536 171 q 456 228 519 181 q 383 281 385 281 l 393 188 q 400 89 401 96 q 369 53 396 64 q 347 49 361 49 q 324 53 332 49 q 293 89 297 64 q 300 188 292 96 l 310 281 q 238 228 308 281 q 161 174 174 181 q 143 171 157 171 q 122 174 129 171 q 94 201 101 183 q 103 263 78 238 q 107 267 104 265 q 194 308 103 265 q 275 347 275 346 l 201 382 q 118 421 119 421 q 89 458 93 433 q 106 507 85 488 q 143 522 121 522 q 161 521 157 522 l 238 465 q 310 413 308 413 l 300 506 q 299 618 292 604 q 333 644 307 636 z "},"":{"ha":1081,"x_min":78,"x_max":1001,"o":"m 518 750 q 596 736 560 760 q 644 642 649 701 q 642 626 643 633 q 574 547 631 567 q 499 550 536 535 q 436 626 446 571 q 436 668 432 647 q 504 746 447 726 q 518 750 511 749 m 92 372 l 97 375 l 539 375 l 981 375 l 986 372 q 997 363 990 369 q 1001 347 1001 354 q 997 332 1001 340 q 986 322 990 325 l 981 319 l 539 319 l 97 319 l 92 322 q 82 332 85 328 q 78 347 78 338 q 82 363 78 357 q 92 372 85 367 m 518 150 q 596 136 560 160 q 644 42 649 101 q 642 26 643 33 q 574 -53 631 -33 q 499 -50 536 -65 q 436 26 446 -29 q 436 68 432 47 q 504 146 447 126 q 518 150 511 149 z "},"":{"ha":694,"x_min":14,"x_max":679,"o":"m 336 675 q 358 675 349 681 q 624 411 372 668 q 675 358 674 361 q 675 336 679 347 q 413 71 671 325 q 358 19 361 21 q 336 19 349 14 q 83 269 322 25 q 19 336 22 332 q 19 358 14 347 q 269 611 25 372 q 336 675 332 672 m 479 478 l 347 610 l 215 478 l 85 347 l 215 215 l 347 85 l 479 215 l 610 347 l 479 478 z "},"":{"ha":1081,"x_min":78,"x_max":1003,"o":"m 529 922 q 560 917 543 931 q 568 860 567 908 q 568 694 568 829 l 568 490 l 775 490 l 982 490 l 988 488 q 999 478 992 485 q 1003 463 1003 469 q 999 447 1003 456 q 988 438 992 440 l 982 435 l 775 435 l 568 435 l 568 246 l 568 56 l 775 56 l 982 56 l 988 53 q 999 43 992 50 q 1003 28 1003 35 q 999 13 1003 21 q 988 3 992 6 l 982 0 l 540 0 l 97 0 l 92 3 q 82 13 85 8 q 78 28 78 18 q 82 43 78 38 q 92 53 85 47 l 97 56 l 306 56 l 513 56 l 513 246 l 513 435 l 306 435 l 97 435 l 92 438 q 82 447 85 442 q 78 463 78 453 q 82 478 78 472 q 92 488 85 483 l 97 490 l 306 490 l 513 490 l 513 697 q 515 910 513 904 q 529 922 519 918 z "},"":{"ha":1081,"x_min":78,"x_max":1003,"o":"m 92 692 l 97 694 l 539 694 l 982 694 l 988 692 q 999 682 992 689 q 1003 667 1003 674 q 999 651 1003 660 q 988 642 992 644 l 982 639 l 775 639 l 568 639 l 568 450 l 568 260 l 775 260 l 982 260 l 988 257 q 999 247 992 254 q 1003 232 1003 239 q 999 217 1003 225 q 988 207 992 210 l 982 204 l 775 204 l 568 204 l 568 0 q 560 -222 568 -211 q 522 -225 542 -240 q 515 -215 518 -221 q 513 -3 513 -210 l 513 204 l 306 204 l 97 204 l 92 207 q 82 217 85 211 q 78 232 78 222 q 82 247 78 242 q 92 257 85 253 l 97 260 l 306 260 l 513 260 l 513 450 l 513 639 l 306 639 l 97 639 l 92 642 q 82 651 85 647 q 78 667 78 657 q 82 682 78 676 q 92 692 85 686 z "},"":{"ha":1081,"x_min":74,"x_max":1006,"o":"m 500 808 q 578 808 539 811 q 867 674 747 793 q 926 601 894 644 q 1000 403 983 517 q 1000 297 1006 356 q 1000 292 1000 294 q 867 21 978 131 q 540 -115 732 -114 q 213 21 349 -115 q 153 94 182 51 q 79 292 96 178 q 79 397 74 339 q 79 403 79 400 q 213 674 103 564 q 392 785 289 750 q 500 808 440 803 m 506 561 q 503 739 506 739 q 488 736 501 739 q 283 644 371 721 q 156 431 182 558 q 147 388 156 428 l 147 382 l 326 382 l 506 382 l 506 561 m 601 735 q 581 739 583 738 l 575 739 l 575 561 l 575 382 l 754 382 l 932 382 l 932 388 q 924 431 925 428 q 846 593 906 519 q 786 653 824 624 q 601 735 703 721 m 506 133 l 506 313 l 326 313 l 147 313 l 147 307 q 156 265 154 269 q 233 101 172 175 q 293 42 256 71 q 499 -44 382 -28 l 506 -44 l 506 133 m 932 307 l 932 313 l 754 313 l 575 313 l 575 133 l 575 -44 l 581 -44 q 786 42 697 -28 q 846 101 817 64 q 924 265 907 175 q 932 307 925 269 z "},"":{"ha":1081,"x_min":74,"x_max":1006,"o":"m 500 808 q 578 808 539 811 q 867 674 747 793 q 926 601 894 644 q 1000 403 983 517 q 1000 297 1006 356 q 1000 292 1000 294 q 867 21 978 131 q 540 -115 732 -114 q 213 21 349 -115 q 153 94 182 51 q 79 292 96 178 q 79 397 74 339 q 79 403 79 400 q 213 674 103 564 q 392 785 289 750 q 500 808 440 803 m 572 739 q 293 653 415 751 q 233 593 263 631 q 156 431 174 519 q 147 388 156 428 l 147 382 l 539 382 l 932 382 l 932 388 q 924 431 925 428 q 846 593 906 519 q 786 653 824 624 q 572 739 694 728 m 932 307 l 932 313 l 539 313 l 147 313 l 147 307 q 156 265 154 269 q 233 101 172 175 q 293 42 256 71 q 439 -33 360 -12 q 750 17 607 -76 q 786 42 769 28 q 846 101 817 64 q 924 265 907 175 q 932 307 925 269 z "},"":{"ha":1081,"x_min":74,"x_max":1006,"o":"m 500 808 q 578 808 539 811 q 867 674 747 793 q 926 601 894 644 q 1000 403 983 517 q 1000 297 1006 356 q 1000 292 1000 294 q 867 21 978 131 q 540 -115 732 -114 q 213 21 349 -115 q 153 94 182 51 q 79 292 96 178 q 79 397 74 339 q 79 403 79 400 q 213 674 103 564 q 392 785 289 750 q 500 808 440 803 m 592 736 q 506 739 549 742 q 304 663 393 728 q 289 650 290 651 q 414 522 286 647 l 540 396 l 665 522 l 792 649 l 786 653 q 679 714 740 692 q 592 736 632 732 m 364 222 l 489 347 l 364 474 l 238 599 l 235 594 q 190 528 215 575 q 149 397 160 469 q 149 297 143 351 q 226 110 164 192 q 236 97 235 99 q 364 222 239 94 m 853 585 q 843 597 844 596 q 715 472 840 600 l 590 347 l 715 222 q 843 97 840 94 q 853 110 844 99 q 931 297 915 192 q 931 397 936 343 q 853 585 915 503 m 790 44 q 665 172 793 47 l 539 299 l 414 172 l 288 46 l 293 42 q 400 -19 340 1 q 494 -43 438 -35 q 579 -44 531 -49 q 585 -43 582 -43 q 742 11 669 -32 q 790 44 778 32 z "},"":{"ha":1081,"x_min":74,"x_max":1006,"o":"m 500 808 q 578 808 539 811 q 867 674 747 793 q 926 601 894 644 q 1000 403 983 517 q 1000 297 1006 356 q 1000 292 1000 294 q 867 21 978 131 q 540 -115 732 -114 q 213 21 349 -115 q 153 94 182 51 q 79 292 96 178 q 79 397 74 339 q 79 403 79 400 q 213 674 103 564 q 392 785 289 750 q 500 808 440 803 m 592 736 q 506 739 549 742 q 293 653 388 728 q 233 593 263 631 q 149 397 165 510 q 149 297 143 351 q 190 167 160 225 q 235 100 215 119 l 238 96 l 515 372 q 790 650 792 647 q 742 683 778 663 q 592 736 674 725 m 853 585 q 843 597 844 596 q 564 322 842 599 l 288 46 l 293 42 q 426 -29 350 -6 q 739 8 592 -79 q 786 42 764 24 q 846 101 817 64 q 931 297 914 185 q 931 397 936 343 q 853 585 915 503 z "},"":{"ha":1081,"x_min":74,"x_max":1006,"o":"m 500 808 q 578 808 539 811 q 867 674 747 793 q 926 601 894 644 q 1000 403 983 517 q 1000 297 1006 356 q 1000 292 1000 294 q 867 21 978 131 q 540 -115 732 -114 q 213 21 349 -115 q 153 94 182 51 q 79 292 96 178 q 79 397 74 339 q 79 403 79 400 q 213 674 103 564 q 392 785 289 750 q 500 808 440 803 m 572 739 q 293 653 415 751 q 233 593 263 631 q 149 397 165 510 q 149 297 143 351 q 233 101 165 185 q 293 42 256 71 q 597 -42 426 -65 q 640 -33 618 -39 q 786 42 719 -12 q 846 101 817 64 q 931 297 914 185 q 931 397 936 343 q 846 593 914 510 q 786 653 824 624 q 572 739 694 728 m 521 464 q 572 461 540 468 q 646 400 624 444 q 657 347 657 376 q 646 296 657 318 q 572 233 622 250 q 540 231 561 231 q 507 233 518 231 q 433 296 457 250 q 422 347 422 318 q 424 376 422 368 q 447 421 433 404 q 521 464 472 454 z "},"":{"ha":1389,"x_min":74,"x_max":1314,"o":"m 658 993 l 758 992 q 882 963 824 983 q 1196 724 1079 896 q 1308 415 1288 589 q 1308 286 1314 358 q 1308 279 1308 282 q 1278 140 1300 207 q 1010 -208 1203 -87 q 838 -282 929 -258 q 694 -299 772 -299 q 596 -292 635 -299 q 244 -96 389 -256 q 192 -29 215 -64 q 79 279 100 106 q 79 408 74 336 q 79 415 79 413 q 110 554 88 488 q 375 900 183 779 q 506 963 436 939 q 658 993 578 988 m 754 936 q 663 938 694 940 q 563 922 607 933 q 242 699 364 871 q 140 453 164 588 q 133 347 133 404 q 150 200 133 268 q 369 -135 201 -10 q 488 -203 425 -176 q 640 -242 560 -233 q 739 -243 679 -247 q 747 -242 743 -242 q 1125 -32 976 -217 q 1253 283 1232 101 q 1253 406 1258 339 q 1253 411 1253 408 q 1097 758 1229 614 q 754 936 958 910 z "},"":{"ha":694,"x_min":76,"x_max":617,"o":"m 317 615 q 515 557 426 628 q 542 533 529 546 q 617 354 613 460 q 615 319 617 336 q 542 160 604 222 q 347 76 457 81 q 156 156 235 76 q 151 160 154 157 q 76 342 79 233 q 78 375 76 358 q 151 533 89 471 q 317 615 218 604 m 388 557 q 326 560 357 563 q 225 524 272 556 q 172 471 190 499 q 136 388 146 436 q 136 306 128 347 q 172 222 146 257 q 225 169 190 194 q 306 136 263 144 q 388 136 347 128 q 468 169 431 144 q 521 222 503 194 q 557 306 547 257 q 557 388 565 347 q 521 471 547 436 q 468 524 503 499 q 388 557 431 549 z "},"":{"ha":694,"x_min":76,"x_max":617,"o":"m 317 615 q 515 557 426 628 q 542 533 529 546 q 617 354 613 460 q 615 319 617 336 q 542 160 604 222 q 347 76 457 81 q 156 156 235 76 q 151 160 154 157 q 76 342 79 233 q 78 375 76 358 q 151 533 89 471 q 317 615 218 604 z "},"":{"ha":1081,"x_min":78,"x_max":1003,"o":"m 92 642 l 97 644 l 539 644 l 982 644 l 988 642 q 999 632 992 639 q 1003 617 1003 624 q 988 592 1003 600 l 981 589 l 540 589 l 100 589 l 92 592 q 78 617 78 600 q 82 632 78 626 q 92 642 85 636 m 92 372 l 97 375 l 539 375 l 982 375 l 988 372 q 999 363 992 369 q 1003 347 1003 354 q 999 332 1003 340 q 988 322 992 325 l 982 319 l 539 319 l 97 319 l 92 322 q 82 332 85 328 q 78 347 78 338 q 82 363 78 357 q 92 372 85 367 m 92 103 l 100 106 l 540 106 l 981 106 l 988 103 q 1003 78 1003 94 q 999 63 1003 71 q 988 53 992 56 l 982 50 l 539 50 l 97 50 l 92 53 q 82 63 85 58 q 78 78 78 68 q 92 103 78 94 z "},"":{"ha":1081,"x_min":117,"x_max":972,"o":"m 500 882 l 711 883 q 728 883 719 883 l 943 883 l 949 881 q 963 846 971 869 q 951 833 960 838 l 946 829 l 725 828 q 468 822 492 826 q 457 819 467 821 q 369 789 413 808 q 257 704 306 757 q 174 529 190 629 q 174 433 168 485 q 257 257 190 332 q 369 172 306 204 q 456 143 415 151 q 581 135 489 135 q 725 133 533 135 l 946 133 l 951 129 q 961 92 972 114 q 949 81 957 85 l 943 78 l 731 78 q 503 79 513 78 q 239 196 347 94 q 124 400 149 281 q 117 481 117 432 q 124 563 117 529 q 239 765 149 682 q 500 882 347 867 m 158 -139 l 164 -136 l 553 -136 l 943 -136 l 949 -139 q 960 -149 953 -142 q 964 -164 964 -157 q 960 -179 964 -171 q 949 -189 953 -186 l 943 -192 l 553 -192 l 164 -192 l 158 -189 q 149 -179 151 -183 q 144 -164 144 -174 q 149 -149 144 -154 q 158 -139 151 -144 z "},"":{"ha":1081,"x_min":107,"x_max":963,"o":"m 131 881 l 136 883 l 349 883 q 576 882 567 883 q 840 765 732 867 q 956 563 931 682 q 963 481 963 529 q 956 400 963 432 q 840 196 931 281 q 576 79 731 92 q 349 78 565 78 l 136 78 l 131 81 q 117 115 108 92 q 128 129 121 124 l 133 133 l 354 133 q 611 139 588 135 q 622 142 613 140 q 711 172 667 153 q 822 257 774 204 q 906 433 889 332 q 906 529 911 475 q 822 704 889 629 q 711 789 774 757 q 624 818 663 810 q 499 826 590 826 q 354 828 546 826 l 133 829 l 128 833 q 118 868 107 846 q 131 881 122 876 m 131 -139 l 136 -136 l 525 -136 l 915 -136 l 921 -139 q 932 -149 925 -142 q 936 -164 936 -157 q 932 -179 936 -171 q 921 -189 925 -186 l 915 -192 l 525 -192 l 136 -192 l 131 -189 q 121 -179 124 -183 q 117 -164 117 -174 q 121 -149 117 -154 q 131 -139 124 -144 z "},"":{"ha":1081,"x_min":108,"x_max":972,"o":"m 924 881 q 949 881 938 886 q 963 846 971 869 q 954 835 960 839 q 579 656 953 833 l 210 481 l 554 317 q 960 121 957 126 q 954 83 972 100 q 939 78 947 78 l 931 78 l 531 267 q 125 460 128 457 q 115 483 115 467 q 133 507 117 499 l 924 881 m 131 -140 l 138 -136 l 539 -136 l 942 -136 l 949 -139 q 964 -164 964 -147 q 960 -179 964 -171 q 949 -189 953 -186 l 943 -192 l 539 -192 l 136 -192 l 131 -189 q 118 -154 108 -176 q 131 -140 122 -144 z "},"":{"ha":1081,"x_min":107,"x_max":964,"o":"m 131 881 q 156 878 139 885 q 550 694 179 868 q 954 501 951 504 q 964 481 964 494 q 954 460 964 467 q 549 267 951 457 l 149 78 l 140 78 q 115 101 119 79 q 119 121 114 111 q 231 178 125 128 q 525 317 300 210 l 869 481 l 500 656 q 125 835 126 833 q 118 844 119 840 q 131 881 107 865 m 131 -140 l 138 -136 l 539 -136 l 942 -136 l 949 -139 q 964 -164 964 -147 q 960 -179 964 -171 q 949 -189 953 -186 l 943 -192 l 539 -192 l 136 -192 l 131 -189 q 118 -154 108 -176 q 131 -140 122 -144 z "},"":{"ha":1081,"x_min":117,"x_max":964,"o":"m 924 879 q 939 883 931 883 q 961 868 953 881 q 964 850 964 863 q 940 754 958 803 q 888 663 918 699 q 565 492 788 542 l 531 483 q 518 481 519 481 l 531 478 q 656 444 600 463 q 740 411 686 433 q 951 176 907 328 q 964 111 961 143 q 961 93 964 99 q 951 83 953 85 q 936 79 946 79 q 921 82 926 79 q 907 115 911 89 q 842 265 896 200 q 390 442 724 408 q 190 453 283 451 q 131 456 136 453 q 121 465 124 461 q 117 481 117 471 q 121 496 117 490 q 131 506 124 500 q 190 508 136 508 q 390 519 283 510 q 842 696 724 553 q 907 846 896 761 q 924 879 910 872 m 131 -139 l 136 -136 l 539 -136 l 943 -136 l 949 -139 q 960 -149 953 -142 q 964 -164 964 -157 q 960 -179 964 -171 q 949 -189 953 -186 l 943 -192 l 539 -192 l 136 -192 l 131 -189 q 121 -179 124 -183 q 117 -164 117 -174 q 121 -149 117 -154 q 131 -139 124 -144 z "},"":{"ha":1081,"x_min":74,"x_max":1010,"o":"m 279 507 q 351 506 310 514 q 471 447 408 493 q 549 382 499 426 q 657 297 624 317 q 764 263 707 267 q 878 297 828 260 q 926 349 903 315 q 964 469 964 406 q 981 508 964 503 q 994 501 988 511 q 997 411 1010 482 q 889 224 976 285 q 861 207 875 214 q 769 186 817 185 q 700 197 731 186 q 544 300 639 218 q 531 313 538 306 q 422 397 456 378 q 317 432 372 428 q 201 397 251 435 q 132 307 153 358 q 115 228 119 272 q 106 189 114 201 q 83 196 92 178 q 78 256 74 213 q 193 474 93 406 q 279 507 232 500 z "},"":{"ha":1081,"x_min":72,"x_max":1013,"o":"m 285 669 l 335 669 q 439 638 386 663 q 546 574 475 618 l 615 529 q 733 482 676 494 q 813 483 775 476 q 892 515 854 492 q 942 565 921 533 q 964 631 960 592 q 967 651 964 646 q 989 668 974 678 q 994 663 992 667 q 1001 606 1006 649 q 881 428 986 481 q 846 414 864 419 q 674 421 763 386 q 533 500 631 436 q 465 543 485 529 q 347 590 403 578 q 267 589 303 596 q 188 557 225 581 q 138 507 158 539 q 115 442 117 478 q 106 406 114 415 q 81 418 89 392 q 82 490 72 439 q 206 647 104 601 q 233 658 218 654 q 285 669 261 669 m 285 344 l 335 344 q 439 313 386 338 q 546 249 475 293 l 615 204 q 733 157 676 169 q 813 158 775 151 q 892 190 854 167 q 942 240 921 208 q 964 306 960 267 q 967 326 964 321 q 979 344 971 340 q 988 344 983 346 q 999 264 1013 333 q 997 257 997 260 q 874 100 975 146 q 846 89 861 93 q 674 96 763 61 q 533 175 631 111 q 465 218 485 204 q 347 265 403 253 q 267 264 303 271 q 188 232 225 256 q 138 182 158 214 q 115 117 117 153 q 106 81 114 90 q 81 93 89 67 q 82 165 72 114 q 206 322 104 276 q 233 333 218 329 q 285 344 261 344 z "},"":{"ha":1081,"x_min":117,"x_max":972,"o":"m 500 749 l 711 750 q 728 750 719 750 l 943 750 l 949 747 q 963 713 971 736 q 951 700 960 704 l 946 696 l 725 694 q 468 689 492 693 q 457 686 467 688 q 369 656 413 675 q 257 571 306 624 q 174 396 190 496 q 174 300 168 351 q 257 124 190 199 q 369 39 306 71 q 456 10 415 18 q 581 1 489 1 q 725 0 533 1 l 946 0 l 951 -4 q 961 -42 972 -19 q 949 -53 957 -49 l 943 -56 l 731 -56 q 503 -54 513 -56 q 239 63 347 -39 q 124 267 149 147 q 117 347 117 299 q 124 429 117 396 q 239 632 149 549 q 500 749 347 733 z "},"":{"ha":1081,"x_min":107,"x_max":963,"o":"m 131 747 l 136 750 l 349 750 q 576 749 567 750 q 840 632 732 733 q 956 429 931 549 q 963 347 963 396 q 956 267 963 299 q 840 63 931 147 q 576 -54 731 -42 q 349 -56 565 -56 l 136 -56 l 131 -53 q 117 -18 108 -42 q 128 -4 121 -10 l 133 0 l 354 0 q 611 6 588 1 q 622 8 613 7 q 711 39 667 19 q 822 124 774 71 q 906 300 889 199 q 906 396 911 342 q 822 571 889 496 q 711 656 774 624 q 624 685 663 676 q 499 693 590 693 q 354 694 546 693 l 133 696 l 128 700 q 118 735 107 713 q 131 747 122 743 z "},"":{"ha":1389,"x_min":78,"x_max":1321,"o":"m 854 788 q 860 789 857 788 q 868 788 861 789 q 888 756 892 779 q 879 742 885 747 q 519 543 878 739 l 163 347 l 519 151 q 879 -47 878 -44 q 878 -86 897 -65 q 860 -93 872 -93 q 840 -87 853 -93 q 457 122 821 -75 q 82 332 85 326 q 78 347 78 338 q 82 363 78 357 q 450 568 85 368 q 854 788 851 786 m 1278 788 q 1283 789 1281 788 q 1292 788 1285 789 q 1311 756 1315 779 q 1303 742 1308 747 q 943 543 1301 739 l 586 347 l 943 151 q 1303 -47 1301 -44 q 1301 -86 1321 -65 q 1283 -93 1296 -93 q 1264 -87 1276 -93 q 881 122 1244 -75 q 506 332 508 326 q 501 347 501 338 q 506 363 501 357 q 874 568 508 368 q 1278 788 1275 786 z "},"":{"ha":1081,"x_min":115,"x_max":964,"o":"m 131 746 q 156 744 143 751 q 172 711 169 738 q 238 561 183 626 q 690 385 356 418 q 889 374 794 375 q 949 371 943 374 q 960 361 953 368 q 964 346 964 353 q 960 331 964 339 q 949 321 953 324 q 889 318 943 318 q 549 286 682 314 q 175 -3 218 217 q 172 -24 174 -12 q 165 -44 168 -42 q 131 -54 153 -65 q 118 -42 122 -50 q 115 -24 115 -36 q 139 72 121 24 q 192 164 161 128 q 514 335 292 285 l 549 343 q 561 346 560 346 l 549 349 q 424 382 479 364 q 340 415 388 394 q 128 650 174 497 q 117 718 117 697 q 121 736 117 731 q 131 746 124 742 z "},"":{"ha":1389,"x_min":76,"x_max":1311,"o":"m 381 707 q 400 710 386 710 q 426 700 424 710 q 421 660 431 693 q 342 489 396 564 q 233 379 303 435 l 229 375 l 760 375 l 1290 375 l 1296 372 q 1306 363 1304 367 q 1311 347 1311 356 q 1306 332 1311 339 q 1296 322 1304 328 l 1290 319 l 760 319 l 229 319 l 233 315 q 381 142 331 240 q 421 35 407 89 q 426 -6 431 1 q 400 -15 424 -15 q 374 -3 378 -15 q 371 6 372 0 q 365 29 368 15 q 189 282 326 188 q 101 328 147 310 q 76 343 81 336 q 81 357 76 353 q 101 367 86 363 q 328 568 253 426 q 365 665 353 615 q 371 690 367 674 q 381 707 375 706 z "},"":{"ha":1081,"x_min":76,"x_max":1008,"o":"m 528 1007 q 561 1000 549 1018 q 572 978 564 997 q 610 890 589 933 q 756 692 668 772 q 931 506 878 585 q 1003 319 993 414 q 1001 213 1008 281 q 853 -28 979 1 q 772 -26 815 -33 q 643 64 665 -8 q 640 75 642 69 q 638 92 638 86 l 638 97 l 603 97 l 568 97 l 568 86 q 600 -124 568 -18 q 603 -168 610 -157 q 592 -178 596 -175 q 540 -181 586 -181 q 489 -178 494 -181 q 479 -168 482 -172 q 481 -124 471 -157 q 513 86 513 -18 l 513 97 l 478 97 l 443 97 l 443 92 q 435 57 443 74 q 408 18 428 35 q 308 -26 372 -15 q 265 -29 294 -29 q 204 -21 233 -31 q 133 38 158 -1 q 76 268 81 118 q 83 353 76 317 q 199 569 104 461 q 325 692 239 615 q 471 890 413 772 q 508 978 492 933 q 528 1007 519 1003 z "}}}
